<svg xmlns="http://www.w3.org/2000/svg" xmlns:xlink="http://www.w3.org/1999/xlink" width="965.316" height="21.76" viewBox="0 0 965.316 21.76">
  <defs>
    <clipPath id="clip-path">
      <rect id="Rectángulo_367" data-name="Rectángulo 367" width="410" height="21.76" transform="translate(17403 -11818)" fill="#fff" stroke="#707070" stroke-width="1"/>
    </clipPath>
  </defs>
  <g id="Grupo_683" data-name="Grupo 683" transform="translate(-17403 11818)">
    <g id="Grupo_682" data-name="Grupo 682">
      <g id="Enmascarar_grupo_23" data-name="Enmascarar grupo 23" clip-path="url(#clip-path)">
        <g id="Grupo_681" data-name="Grupo 681" transform="translate(0 -106)">
          <path id="Trazado_24482" data-name="Trazado 24482" d="M32.6,116.93l.189.284-.2.278c-2.456,3.494-5.558,7.22-11.315,7.22-6.168,0-9.406-4.019-12.31-8.268L9,117.85l.013-.017.4.549c2.38,3.273,5.873,7.03,11.805,7.03,5.77,0,9.061-3.551,11.519-7.024l.4-.559.422.617c2.38,3.273,5.873,7.03,11.806,7.03,5.77,0,9.061-3.551,11.519-7.025l.382-.54.343.471c2.38,3.273,5.873,7.03,11.806,7.03,5.77,0,9.061-3.551,11.519-7.024l.395-.559.422.617c2.38,3.273,5.873,7.03,11.805,7.03,5.77,0,9.061-3.551,11.519-7.025l.392-.554.376.567c2.38,3.272,5.873,7.029,11.806,7.029,5.77,0,9.061-3.551,11.519-7.024l.4-.558.422.616c2.38,3.273,5.873,7.03,11.805,7.03,5.77,0,9.061-3.551,11.519-7.024l.383-.541.343.472c2.38,3.272,5.873,7.029,11.805,7.029,5.77,0,9.061-3.551,11.519-7.024l.395-.558.422.616c2.38,3.273,5.873,7.03,11.806,7.03,5.77,0,9.061-3.551,11.519-7.024l.4-.559-.014-1.3c-.3-.438-.589-.878-.88-1.316-2.932-4.415-5.7-8.586-11.02-8.586-4.5,0-7.312,2.783-10.158,6.961l-.4.59-.415-.581c-.139-.195-.264-.362-.389-.529s-.259-.345-.4-.545l-.208-.291.21-.29c2.505-3.465,6.106-7.441,11.764-7.441,5.71,0,8.944,3.979,11.859,8.225l-.011-1.071-.386-.548c-2.547-3.612-5.9-7.306-11.462-7.306-5.849,0-9.473,3.909-11.977,7.314l-.333.453-.37-.525c-2.547-3.612-5.9-7.3-11.462-7.3-5.848,0-9.472,3.908-11.976,7.313l-.333.452-.279-.4c-2.546-3.612-5.9-7.306-11.462-7.306-5.848,0-9.472,3.909-11.976,7.314l-.333.453-.37-.525c-2.547-3.612-5.9-7.3-11.462-7.3-5.849,0-9.473,3.908-11.977,7.313l-.325.442-.329-.467c-2.547-3.613-5.9-7.306-11.462-7.306-5.848,0-9.472,3.909-11.976,7.314l-.333.453-.371-.525c-2.546-3.613-5.9-7.306-11.461-7.306-5.849,0-9.473,3.909-11.977,7.314l-.332.452-.279-.4c-2.547-3.613-5.9-7.306-11.462-7.306-5.849,0-9.473,3.909-11.977,7.314l-.333.453-.37-.525c-2.547-3.613-5.9-7.306-11.462-7.306-5.848,0-9.473,3.909-11.976,7.314l-.4.538.024.952q.5.711.991,1.428c3.024,4.4,5.88,8.554,11.414,8.554,4.4,0,7.015-2.534,9.819-6.622l.416-.608.409.613c.109.163.218.313.327.462S32.48,116.754,32.6,116.93Zm-3.682-5.174.9,1.195a18.706,18.706,0,0,1,1.046,1.568l.162.271-.175.262c-.336.5-.684,1.027-1.033,1.492l-.9,1.2Zm-3.391-3.271.791.575a11.555,11.555,0,0,1,1.773,1.652l.128.142v7.689l-.146.145a14.753,14.753,0,0,1-1.755,1.577l-.791.575Zm-3.956-1.137.531.035a7.438,7.438,0,0,1,2.419.6l.307.128v13.041l-.307.128a7.436,7.436,0,0,1-2.419.6l-.531.036Zm-3.957.766.307-.128a7.945,7.945,0,0,1,2.417-.6l.533-.037v14.521l-.533-.038a7.842,7.842,0,0,1-2.417-.546l-.307-.128ZM13.655,111.3l.133-.144A16.219,16.219,0,0,1,16.124,109l.788-.563v12.449l-.788-.563a15.53,15.53,0,0,1-2.337-2.045l-.132-.144Zm-2.531,3.417.184-.276c.062-.092.123-.188.186-.287a7.913,7.913,0,0,1,.581-.83l.881-1.056v5.167l-.913-1.368c-.111-.167-.237-.348-.362-.529s-.258-.373-.373-.545Zm170.59,2.864-.912-1.369c-.112-.167-.237-.348-.363-.529s-.257-.372-.372-.544l-.184-.277.184-.276c.061-.092.123-.188.185-.286a7.867,7.867,0,0,1,.582-.83l.88-1.057Zm3.957,3.449-.788-.563a15.426,15.426,0,0,1-2.337-2.045l-.132-.143v-6.834l.133-.143a16.115,16.115,0,0,1,2.336-2.158l.788-.562Zm3.956.98-.534-.038a7.835,7.835,0,0,1-2.416-.546l-.307-.128V108.259l.307-.128a7.918,7.918,0,0,1,2.417-.6l.533-.038Zm3.956-.712-.306.128a7.436,7.436,0,0,1-2.419.6l-.532.036V107.493l.532.036a7.436,7.436,0,0,1,2.419.6l.306.128Zm3.392-2.612-.146.146a14.823,14.823,0,0,1-1.755,1.576l-.791.575V108.63l.791.575a11.554,11.554,0,0,1,1.773,1.652l.128.142Zm2.8-3.753-.175.262c-.337.505-.685,1.027-1.034,1.492l-.9,1.2V111.9l.9,1.195a18.226,18.226,0,0,1,1.046,1.568Zm-22.055,1.655v0q-.438-.65-.868-1.3c-2.932-4.415-5.7-8.586-11.021-8.586-4.5,0-7.312,2.783-10.157,6.961l-.4.59-.415-.581c-.139-.195-.265-.362-.39-.529s-.258-.344-.4-.545l-.208-.291.21-.29c2.505-3.465,6.106-7.441,11.764-7.441s8.884,3.907,11.778,8.108v0c.333.474.679,1.009,1.006,1.485,3.024,4.4,5.881,8.554,11.414,8.554,4.395,0,7.016-2.534,9.819-6.622l.417-.608.409.613c.108.163.218.313.326.463s.235.322.352.5l.189.284-.2.279c-2.456,3.493-5.559,7.219-11.316,7.219C183.866,124.857,180.627,120.838,177.724,116.59Zm-21.8-2.066c.062-.092.123-.188.186-.286a7.811,7.811,0,0,1,.581-.83l.881-1.057v5.168l-.913-1.369c-.111-.167-.237-.348-.362-.529s-.258-.372-.372-.544l-.185-.277Zm2.48-3.284a16.225,16.225,0,0,1,2.336-2.158l.788-.562v12.448l-.788-.563a15.474,15.474,0,0,1-2.337-2.045l-.132-.143v-6.834Zm4.13-3.173a7.948,7.948,0,0,1,2.417-.6l.533-.038v14.521l-.533-.038a7.813,7.813,0,0,1-2.417-.546l-.306-.128V108.195Zm4.181-.6a7.436,7.436,0,0,1,2.419.6l.307.128v13.041l-.307.128a7.436,7.436,0,0,1-2.419.6l-.531.036V107.429Zm4.216,1.676a11.471,11.471,0,0,1,1.773,1.653l.128.141v7.689l-.146.146a14.657,14.657,0,0,1-1.755,1.576l-.791.575V108.566Zm3.5,3.891a18.568,18.568,0,0,1,1.046,1.569l.162.27-.175.262c-.336.5-.684,1.027-1.033,1.492l-.9,1.2v-5.984Zm-20.743,3.641c-.3-.438-.589-.878-.88-1.316-2.932-4.415-5.7-8.586-11.021-8.586-4.5,0-7.311,2.783-10.157,6.961l-.4.59-.415-.581c-.139-.195-.264-.362-.39-.529s-.258-.345-.4-.545l-.208-.291.209-.29c2.505-3.465,6.106-7.441,11.764-7.441,5.69,0,8.92,3.951,11.827,8.179.29.423.582.876.866,1.289,3.024,4.4,5.88,8.554,11.414,8.554,4.4,0,7.015-2.534,9.819-6.622l.416-.608.409.613c.109.163.218.313.327.463s.234.322.351.5l.189.284-.2.279c-2.456,3.493-5.558,7.22-11.315,7.22-6.1,0-9.329-3.927-12.206-8.119Zm-21.81-2.085c.061-.092.122-.188.185-.286a7.707,7.707,0,0,1,.581-.83l.881-1.057v5.168l-.913-1.369c-.111-.167-.237-.348-.362-.529s-.258-.372-.372-.544l-.184-.277Zm2.479-3.284a16.176,16.176,0,0,1,2.337-2.158l.787-.562v12.448l-.787-.563a15.434,15.434,0,0,1-2.338-2.045l-.132-.143v-6.834Zm4.13-3.173a7.918,7.918,0,0,1,2.417-.6l.533-.038v14.521l-.533-.038a7.848,7.848,0,0,1-2.417-.546l-.306-.128V108.259Zm4.181-.6a7.436,7.436,0,0,1,2.419.6l.307.128V121.3l-.307.128a7.436,7.436,0,0,1-2.419.6l-.531.036V107.493Zm4.216,1.676a11.509,11.509,0,0,1,1.773,1.652l.128.142v7.689l-.146.146a14.744,14.744,0,0,1-1.755,1.576l-.791.575V108.63Zm3.5,3.891a18.46,18.46,0,0,1,1.046,1.568l.162.271-.175.262c-.336.505-.684,1.027-1.033,1.492l-.9,1.2V111.9Zm-20.846,3.494v0q-.438-.65-.869-1.3c-2.932-4.415-5.7-8.586-11.02-8.586-4.5,0-7.312,2.783-10.158,6.961l-.4.59-.415-.581c-.139-.195-.264-.362-.389-.529s-.259-.344-.4-.545l-.208-.291.21-.29c2.505-3.465,6.106-7.441,11.764-7.441s8.883,3.907,11.777,8.108v0c.334.474.679,1.009,1.007,1.485,3.024,4.4,5.88,8.554,11.414,8.554,4.4,0,7.015-2.534,9.819-6.622l.417-.608.408.613c.109.163.218.313.327.463s.234.322.352.5l.188.284-.2.279c-2.456,3.493-5.558,7.219-11.315,7.219C135.675,124.857,132.436,120.838,129.533,116.59Zm-21.8-2.066c.061-.092.123-.188.185-.286a7.824,7.824,0,0,1,.582-.83l.88-1.057v5.168l-.912-1.369c-.112-.167-.237-.348-.363-.529s-.257-.372-.372-.544l-.184-.277Zm2.48-3.284a16.172,16.172,0,0,1,2.336-2.158l.788-.562v12.448l-.788-.563a15.426,15.426,0,0,1-2.337-2.045l-.132-.143v-6.834Zm4.13-3.173a7.94,7.94,0,0,1,2.416-.6l.534-.038v14.521l-.534-.038a7.807,7.807,0,0,1-2.416-.546l-.307-.128V108.195Zm4.181-.6a7.436,7.436,0,0,1,2.419.6l.306.128v13.041l-.306.128a7.436,7.436,0,0,1-2.419.6l-.532.036V107.429Zm4.216,1.676a11.516,11.516,0,0,1,1.773,1.653l.127.141v7.689l-.145.146a14.735,14.735,0,0,1-1.755,1.576l-.791.575V108.566Zm3.5,3.891a18.1,18.1,0,0,1,1.046,1.569l.163.27-.175.262c-.337.5-.685,1.027-1.034,1.492l-.9,1.2v-5.984Zm-20.846,3.494v0c-.276-.413-.547-.844-.819-1.255-2.932-4.416-5.7-8.586-11.021-8.586-4.5,0-7.312,2.783-10.157,6.96l-.4.59-.415-.581c-.139-.195-.265-.361-.39-.528s-.258-.345-.4-.545l-.208-.292.21-.29c2.5-3.464,6.106-7.441,11.764-7.441,5.711,0,8.944,3.98,11.859,8.226h0c.295.433.585.9.876,1.325,3.024,4.4,5.881,8.554,11.414,8.554,4.4,0,7.016-2.534,9.819-6.622l.417-.608.409.613c.108.163.217.313.326.463s.235.322.352.5l.189.284-.2.279c-2.456,3.493-5.559,7.22-11.316,7.22C111.533,124.794,108.294,120.774,105.391,116.526Zm-21.75-2.019c.062-.092.123-.188.186-.287a7.912,7.912,0,0,1,.581-.83l.881-1.056V117.5l-.913-1.368c-.111-.167-.237-.348-.362-.529s-.258-.373-.372-.545l-.185-.276Zm2.48-3.285a16.218,16.218,0,0,1,2.336-2.157l.788-.563v12.449l-.788-.563a15.48,15.48,0,0,1-2.337-2.046l-.132-.143v-6.833Zm4.13-3.172a7.916,7.916,0,0,1,2.417-.6l.533-.038v14.522l-.533-.038a7.813,7.813,0,0,1-2.417-.547l-.306-.127V108.177Zm4.181-.6a7.439,7.439,0,0,1,2.419.6l.307.127v13.042l-.307.127a7.438,7.438,0,0,1-2.419.6l-.531.035V107.412Zm4.216,1.677a11.508,11.508,0,0,1,1.773,1.652l.128.142v7.688l-.146.146a14.753,14.753,0,0,1-1.755,1.577l-.791.575V108.549Zm3.5,3.891a18.7,18.7,0,0,1,1.046,1.568l.162.271-.175.262c-.336.505-.684,1.026-1.033,1.492l-.9,1.2V111.82ZM81.3,116.508v0q-.438-.648-.869-1.3c-2.932-4.415-5.7-8.586-11.02-8.586-4.5,0-7.312,2.783-10.158,6.96l-.4.59-.415-.581c-.139-.194-.264-.361-.389-.528s-.259-.345-.4-.545l-.208-.292.21-.29c2.505-3.464,6.106-7.44,11.764-7.44s8.883,3.906,11.777,8.107v0c.334.475.679,1.009,1.007,1.486,3.024,4.4,5.88,8.554,11.414,8.554,4.395,0,7.015-2.534,9.819-6.623l.416-.607.409.613c.109.163.218.313.327.462s.234.323.351.5l.189.283-.2.279c-2.456,3.493-5.558,7.22-11.315,7.22C87.44,124.776,84.2,120.757,81.3,116.508Zm-21.8-2.065c.061-.092.123-.188.185-.287a8.065,8.065,0,0,1,.581-.83l.881-1.056v5.167l-.912-1.368c-.112-.167-.237-.348-.363-.529s-.258-.373-.372-.545l-.184-.276Zm2.48-3.285A16.167,16.167,0,0,1,64.316,109l.787-.563v12.449l-.787-.563a15.432,15.432,0,0,1-2.337-2.045l-.132-.144V111.3Zm4.129-3.172a7.953,7.953,0,0,1,2.417-.6l.534-.037v14.521l-.534-.038a7.848,7.848,0,0,1-2.417-.546l-.306-.128V108.114Zm4.181-.6a7.444,7.444,0,0,1,2.42.6l.306.128v13.041l-.306.128a7.441,7.441,0,0,1-2.42.6l-.531.036V107.348Zm4.217,1.677a11.507,11.507,0,0,1,1.772,1.652l.128.142v7.689l-.146.145a14.823,14.823,0,0,1-1.754,1.577l-.791.575V108.485Zm3.5,3.891a18.228,18.228,0,0,1,1.046,1.568l.162.271-.174.262c-.337.5-.685,1.027-1.034,1.492l-.9,1.2v-5.984Zm-20.743,3.64c-.3-.437-.589-.877-.88-1.315-2.932-4.416-5.7-8.586-11.02-8.586-4.5,0-7.312,2.783-10.158,6.96l-.4.59-.415-.581c-.139-.195-.264-.361-.389-.528s-.259-.345-.4-.545l-.208-.292.21-.29c2.505-3.464,6.106-7.441,11.764-7.441,5.689,0,8.92,3.951,11.827,8.179.29.424.581.877.865,1.29,3.024,4.4,5.88,8.554,11.414,8.554,4.395,0,7.016-2.534,9.819-6.622l.417-.608.408.613c.109.163.218.313.327.462s.235.323.352.5l.189.284-.2.278c-2.456,3.494-5.559,7.22-11.316,7.22-6.1,0-9.329-3.926-12.206-8.118Zm-21.81-2.084c.061-.092.123-.188.185-.287a7.927,7.927,0,0,1,.582-.83l.88-1.056V117.5l-.912-1.368c-.112-.167-.237-.348-.363-.529s-.257-.373-.372-.545l-.184-.276Zm2.48-3.285a16.166,16.166,0,0,1,2.336-2.157l.788-.563v12.449l-.788-.563a15.431,15.431,0,0,1-2.337-2.046L37.8,118.2v-6.833Zm4.13-3.172a7.909,7.909,0,0,1,2.416-.6l.534-.038v14.522l-.534-.038a7.807,7.807,0,0,1-2.416-.547l-.307-.127V108.177Zm4.181-.6a7.439,7.439,0,0,1,2.419.6l.306.127v13.042l-.306.127a7.438,7.438,0,0,1-2.419.6l-.532.035V107.412Zm4.216,1.677a11.554,11.554,0,0,1,1.773,1.652l.127.142v7.688l-.145.146a14.831,14.831,0,0,1-1.755,1.577l-.791.575V108.549Zm3.5,3.891A18.226,18.226,0,0,1,55,114.583l.163.271-.175.262c-.337.505-.685,1.026-1.034,1.492l-.9,1.2V111.82Zm-21.714,2.2c-2.932-4.415-5.7-8.586-11.021-8.586-4.5,0-7.312,2.783-10.157,6.96l-.4.59-.415-.581c-.139-.194-.265-.361-.39-.528s-.258-.345-.4-.545l-.208-.292.21-.29c2.5-3.464,6.106-7.44,11.764-7.44S30.1,108.406,33,112.607v0c.333.475.679,1.009,1.006,1.486,3.024,4.4,5.881,8.554,11.414,8.554,4.4,0,7.016-2.534,9.819-6.623l.417-.607.409.613c.108.163.217.313.326.462s.235.323.352.5l.189.283-.2.279c-2.456,3.493-5.559,7.22-11.316,7.22-6.167,0-9.406-4.019-12.309-8.268v0Q32.669,115.862,32.239,115.212Z" transform="translate(17394.154 -11815.8)" fill="#f7b032"/>
          <path id="Trazado_24483" data-name="Trazado 24483" d="M32.6,116.93l.189.284-.2.278c-2.456,3.494-5.558,7.22-11.315,7.22-6.168,0-9.525-3.828-12.429-8.077v1.349c2.923,3.676,6.44,7.429,12.372,7.429,5.77,0,9.061-3.551,11.519-7.024l.4-.559.422.617c2.38,3.273,5.873,7.03,11.806,7.03,5.77,0,9.061-3.551,11.519-7.025l.382-.54.343.471c2.38,3.273,5.873,7.03,11.806,7.03,5.77,0,9.061-3.551,11.519-7.024l.395-.559.422.617c2.38,3.273,5.873,7.03,11.805,7.03,5.77,0,9.061-3.551,11.519-7.025l.392-.554.376.567c2.38,3.272,5.873,7.029,11.806,7.029,5.77,0,9.061-3.551,11.519-7.024l.4-.558.422.616c2.38,3.273,5.873,7.03,11.805,7.03,5.77,0,9.061-3.551,11.519-7.024l.383-.541.343.472c2.38,3.272,5.873,7.029,11.805,7.029,5.77,0,9.061-3.551,11.519-7.024l.395-.558.422.616c2.38,3.273,5.873,7.03,11.806,7.03,5.77,0,9.061-3.551,11.519-7.024l.4-.559-.014-1.3c-.3-.438-.589-.878-.88-1.316-2.932-4.415-5.7-8.586-11.02-8.586-4.5,0-7.312,2.783-10.158,6.961l-.4.59-.415-.581c-.139-.195-.264-.362-.389-.529s-.259-.345-.4-.545l-.208-.291.21-.29c2.505-3.465,6.106-7.441,11.764-7.441,5.71,0,8.944,3.979,11.859,8.225l-.011-1.071-.386-.548c-2.547-3.612-5.9-7.306-11.462-7.306-5.849,0-9.473,3.909-11.977,7.314l-.333.453-.37-.525c-2.547-3.612-5.9-7.3-11.462-7.3-5.848,0-9.472,3.908-11.976,7.313l-.333.452-.279-.4c-2.546-3.612-5.9-7.306-11.462-7.306-5.848,0-9.472,3.909-11.976,7.314l-.333.453-.37-.525c-2.547-3.612-5.9-7.3-11.462-7.3-5.849,0-9.473,3.908-11.977,7.313l-.325.442-.329-.467c-2.547-3.613-5.9-7.306-11.462-7.306-5.848,0-9.472,3.909-11.976,7.314l-.333.453-.371-.525c-2.546-3.613-5.9-7.306-11.461-7.306-5.849,0-9.473,3.909-11.977,7.314l-.332.452-.279-.4c-2.547-3.613-5.9-7.306-11.462-7.306-5.849,0-9.473,3.909-11.977,7.314l-.333.453-.37-.525c-2.547-3.613-5.9-7.306-11.462-7.306-5.848,0-9.473,3.909-12.441,8v1.053c.333.474.631.732.959,1.209,2.379,3.3,6,8.525,11.539,8.525,4.4,0,7.015-2.534,9.819-6.622l.416-.608.409.613c.109.163.218.313.327.462S32.48,116.754,32.6,116.93Zm-3.682-5.174.9,1.195a18.706,18.706,0,0,1,1.046,1.568l.162.271-.175.262c-.336.5-.684,1.027-1.033,1.492l-.9,1.2Zm-3.391-3.271.791.575a11.555,11.555,0,0,1,1.773,1.652l.128.142v7.689l-.146.145a14.753,14.753,0,0,1-1.755,1.577l-.791.575Zm-3.956-1.137.531.035a7.438,7.438,0,0,1,2.419.6l.307.128v13.041l-.307.128a7.436,7.436,0,0,1-2.419.6l-.531.036Zm-3.957.766.307-.128a7.945,7.945,0,0,1,2.417-.6l.533-.037v14.521l-.533-.038a7.842,7.842,0,0,1-2.417-.546l-.307-.128ZM13.655,111.3l.133-.144A16.219,16.219,0,0,1,16.124,109l.788-.563v12.449l-.788-.563a15.53,15.53,0,0,1-2.337-2.045l-.132-.144Zm-2.531,3.417.184-.276c.062-.092.123-.188.186-.287a7.913,7.913,0,0,1,.581-.83l.881-1.056v5.167l-.913-1.368c-.111-.167-.237-.348-.362-.529s-.258-.373-.373-.545Zm170.59,2.864-.912-1.369c-.112-.167-.237-.348-.363-.529s-.257-.372-.372-.544l-.184-.277.184-.276c.061-.092.123-.188.185-.286a7.867,7.867,0,0,1,.582-.83l.88-1.057Zm3.957,3.449-.788-.563a15.426,15.426,0,0,1-2.337-2.045l-.132-.143v-6.834l.133-.143a16.115,16.115,0,0,1,2.336-2.158l.788-.562Zm3.956.98-.534-.038a7.835,7.835,0,0,1-2.416-.546l-.307-.128V108.259l.307-.128a7.918,7.918,0,0,1,2.417-.6l.533-.038Zm3.956-.712-.306.128a7.436,7.436,0,0,1-2.419.6l-.532.036V107.493l.532.036a7.436,7.436,0,0,1,2.419.6l.306.128Zm3.392-2.612-.146.146a14.823,14.823,0,0,1-1.755,1.576l-.791.575V108.63l.791.575a11.554,11.554,0,0,1,1.773,1.652l.128.142Zm2.8-3.753-.175.262c-.337.505-.685,1.027-1.034,1.492l-.9,1.2V111.9l.9,1.195a18.226,18.226,0,0,1,1.046,1.568Zm-22.055,1.655v0q-.438-.65-.868-1.3c-2.932-4.415-5.7-8.586-11.021-8.586-4.5,0-7.312,2.783-10.157,6.961l-.4.59-.415-.581c-.139-.195-.265-.362-.39-.529s-.258-.344-.4-.545l-.208-.291.21-.29c2.505-3.465,6.106-7.441,11.764-7.441s8.884,3.907,11.778,8.108v0c.333.474.679,1.009,1.006,1.485,3.024,4.4,5.881,8.554,11.414,8.554,4.395,0,7.016-2.534,9.819-6.622l.417-.608.409.613c.108.163.218.313.326.463s.235.322.352.5l.189.284-.2.279c-2.456,3.493-5.559,7.219-11.316,7.219C183.866,124.857,180.627,120.838,177.724,116.59Zm-21.8-2.066c.062-.092.123-.188.186-.286a7.811,7.811,0,0,1,.581-.83l.881-1.057v5.168l-.913-1.369c-.111-.167-.237-.348-.362-.529s-.258-.372-.372-.544l-.185-.277Zm2.48-3.284a16.225,16.225,0,0,1,2.336-2.158l.788-.562v12.448l-.788-.563a15.474,15.474,0,0,1-2.337-2.045l-.132-.143v-6.834Zm4.13-3.173a7.948,7.948,0,0,1,2.417-.6l.533-.038v14.521l-.533-.038a7.813,7.813,0,0,1-2.417-.546l-.306-.128V108.195Zm4.181-.6a7.436,7.436,0,0,1,2.419.6l.307.128v13.041l-.307.128a7.436,7.436,0,0,1-2.419.6l-.531.036V107.429Zm4.216,1.676a11.471,11.471,0,0,1,1.773,1.653l.128.141v7.689l-.146.146a14.657,14.657,0,0,1-1.755,1.576l-.791.575V108.566Zm3.5,3.891a18.568,18.568,0,0,1,1.046,1.569l.162.27-.175.262c-.336.5-.684,1.027-1.033,1.492l-.9,1.2v-5.984Zm-20.743,3.641c-.3-.438-.589-.878-.88-1.316-2.932-4.415-5.7-8.586-11.021-8.586-4.5,0-7.311,2.783-10.157,6.961l-.4.59-.415-.581c-.139-.195-.264-.362-.39-.529s-.258-.345-.4-.545l-.208-.291.209-.29c2.505-3.465,6.106-7.441,11.764-7.441,5.69,0,8.92,3.951,11.827,8.179.29.423.582.876.866,1.289,3.024,4.4,5.88,8.554,11.414,8.554,4.4,0,7.015-2.534,9.819-6.622l.416-.608.409.613c.109.163.218.313.327.463s.234.322.351.5l.189.284-.2.279c-2.456,3.493-5.558,7.22-11.315,7.22-6.1,0-9.329-3.927-12.206-8.119Zm-21.81-2.085c.061-.092.122-.188.185-.286a7.707,7.707,0,0,1,.581-.83l.881-1.057v5.168l-.913-1.369c-.111-.167-.237-.348-.362-.529s-.258-.372-.372-.544l-.184-.277Zm2.479-3.284a16.176,16.176,0,0,1,2.337-2.158l.787-.562v12.448l-.787-.563a15.434,15.434,0,0,1-2.338-2.045l-.132-.143v-6.834Zm4.13-3.173a7.918,7.918,0,0,1,2.417-.6l.533-.038v14.521l-.533-.038a7.848,7.848,0,0,1-2.417-.546l-.306-.128V108.259Zm4.181-.6a7.436,7.436,0,0,1,2.419.6l.307.128V121.3l-.307.128a7.436,7.436,0,0,1-2.419.6l-.531.036V107.493Zm4.216,1.676a11.509,11.509,0,0,1,1.773,1.652l.128.142v7.689l-.146.146a14.744,14.744,0,0,1-1.755,1.576l-.791.575V108.63Zm3.5,3.891a18.46,18.46,0,0,1,1.046,1.568l.162.271-.175.262c-.336.505-.684,1.027-1.033,1.492l-.9,1.2V111.9Zm-20.846,3.494v0q-.438-.65-.869-1.3c-2.932-4.415-5.7-8.586-11.02-8.586-4.5,0-7.312,2.783-10.158,6.961l-.4.59-.415-.581c-.139-.195-.264-.362-.389-.529s-.259-.344-.4-.545l-.208-.291.21-.29c2.505-3.465,6.106-7.441,11.764-7.441s8.883,3.907,11.777,8.108v0c.334.474.679,1.009,1.007,1.485,3.024,4.4,5.88,8.554,11.414,8.554,4.4,0,7.015-2.534,9.819-6.622l.417-.608.408.613c.109.163.218.313.327.463s.234.322.352.5l.188.284-.2.279c-2.456,3.493-5.558,7.219-11.315,7.219C135.675,124.857,132.436,120.838,129.533,116.59Zm-21.8-2.066c.061-.092.123-.188.185-.286a7.824,7.824,0,0,1,.582-.83l.88-1.057v5.168l-.912-1.369c-.112-.167-.237-.348-.363-.529s-.257-.372-.372-.544l-.184-.277Zm2.48-3.284a16.172,16.172,0,0,1,2.336-2.158l.788-.562v12.448l-.788-.563a15.426,15.426,0,0,1-2.337-2.045l-.132-.143v-6.834Zm4.13-3.173a7.94,7.94,0,0,1,2.416-.6l.534-.038v14.521l-.534-.038a7.807,7.807,0,0,1-2.416-.546l-.307-.128V108.195Zm4.181-.6a7.436,7.436,0,0,1,2.419.6l.306.128v13.041l-.306.128a7.436,7.436,0,0,1-2.419.6l-.532.036V107.429Zm4.216,1.676a11.516,11.516,0,0,1,1.773,1.653l.127.141v7.689l-.145.146a14.735,14.735,0,0,1-1.755,1.576l-.791.575V108.566Zm3.5,3.891a18.1,18.1,0,0,1,1.046,1.569l.163.27-.175.262c-.337.5-.685,1.027-1.034,1.492l-.9,1.2v-5.984Zm-20.846,3.494v0c-.276-.413-.547-.844-.819-1.255-2.932-4.416-5.7-8.586-11.021-8.586-4.5,0-7.312,2.783-10.157,6.96l-.4.59-.415-.581c-.139-.195-.265-.361-.39-.528s-.258-.345-.4-.545l-.208-.292.21-.29c2.5-3.464,6.106-7.441,11.764-7.441,5.711,0,8.944,3.98,11.859,8.226h0c.295.433.585.9.876,1.325,3.024,4.4,5.881,8.554,11.414,8.554,4.4,0,7.016-2.534,9.819-6.622l.417-.608.409.613c.108.163.217.313.326.463s.235.322.352.5l.189.284-.2.279c-2.456,3.493-5.559,7.22-11.316,7.22C111.533,124.794,108.294,120.774,105.391,116.526Zm-21.75-2.019c.062-.092.123-.188.186-.287a7.912,7.912,0,0,1,.581-.83l.881-1.056V117.5l-.913-1.368c-.111-.167-.237-.348-.362-.529s-.258-.373-.372-.545l-.185-.276Zm2.48-3.285a16.218,16.218,0,0,1,2.336-2.157l.788-.563v12.449l-.788-.563a15.48,15.48,0,0,1-2.337-2.046l-.132-.143v-6.833Zm4.13-3.172a7.916,7.916,0,0,1,2.417-.6l.533-.038v14.522l-.533-.038a7.813,7.813,0,0,1-2.417-.547l-.306-.127V108.177Zm4.181-.6a7.439,7.439,0,0,1,2.419.6l.307.127v13.042l-.307.127a7.438,7.438,0,0,1-2.419.6l-.531.035V107.412Zm4.216,1.677a11.508,11.508,0,0,1,1.773,1.652l.128.142v7.688l-.146.146a14.753,14.753,0,0,1-1.755,1.577l-.791.575V108.549Zm3.5,3.891a18.7,18.7,0,0,1,1.046,1.568l.162.271-.175.262c-.336.505-.684,1.026-1.033,1.492l-.9,1.2V111.82ZM81.3,116.508v0q-.438-.648-.869-1.3c-2.932-4.415-5.7-8.586-11.02-8.586-4.5,0-7.312,2.783-10.158,6.96l-.4.59-.415-.581c-.139-.194-.264-.361-.389-.528s-.259-.345-.4-.545l-.208-.292.21-.29c2.505-3.464,6.106-7.44,11.764-7.44s8.883,3.906,11.777,8.107v0c.334.475.679,1.009,1.007,1.486,3.024,4.4,5.88,8.554,11.414,8.554,4.395,0,7.015-2.534,9.819-6.623l.416-.607.409.613c.109.163.218.313.327.462s.234.323.351.5l.189.283-.2.279c-2.456,3.493-5.558,7.22-11.315,7.22C87.44,124.776,84.2,120.757,81.3,116.508Zm-21.8-2.065c.061-.092.123-.188.185-.287a8.065,8.065,0,0,1,.581-.83l.881-1.056v5.167l-.912-1.368c-.112-.167-.237-.348-.363-.529s-.258-.373-.372-.545l-.184-.276Zm2.48-3.285A16.167,16.167,0,0,1,64.316,109l.787-.563v12.449l-.787-.563a15.432,15.432,0,0,1-2.337-2.045l-.132-.144V111.3Zm4.129-3.172a7.953,7.953,0,0,1,2.417-.6l.534-.037v14.521l-.534-.038a7.848,7.848,0,0,1-2.417-.546l-.306-.128V108.114Zm4.181-.6a7.444,7.444,0,0,1,2.42.6l.306.128v13.041l-.306.128a7.441,7.441,0,0,1-2.42.6l-.531.036V107.348Zm4.217,1.677a11.507,11.507,0,0,1,1.772,1.652l.128.142v7.689l-.146.145a14.823,14.823,0,0,1-1.754,1.577l-.791.575V108.485Zm3.5,3.891a18.228,18.228,0,0,1,1.046,1.568l.162.271-.174.262c-.337.5-.685,1.027-1.034,1.492l-.9,1.2v-5.984Zm-20.743,3.64c-.3-.437-.589-.877-.88-1.315-2.932-4.416-5.7-8.586-11.02-8.586-4.5,0-7.312,2.783-10.158,6.96l-.4.59-.415-.581c-.139-.195-.264-.361-.389-.528s-.259-.345-.4-.545l-.208-.292.21-.29c2.505-3.464,6.106-7.441,11.764-7.441,5.689,0,8.92,3.951,11.827,8.179.29.424.581.877.865,1.29,3.024,4.4,5.88,8.554,11.414,8.554,4.395,0,7.016-2.534,9.819-6.622l.417-.608.408.613c.109.163.218.313.327.462s.235.323.352.5l.189.284-.2.278c-2.456,3.494-5.559,7.22-11.316,7.22-6.1,0-9.329-3.926-12.206-8.118Zm-21.81-2.084c.061-.092.123-.188.185-.287a7.927,7.927,0,0,1,.582-.83l.88-1.056V117.5l-.912-1.368c-.112-.167-.237-.348-.363-.529s-.257-.373-.372-.545l-.184-.276Zm2.48-3.285a16.166,16.166,0,0,1,2.336-2.157l.788-.563v12.449l-.788-.563a15.431,15.431,0,0,1-2.337-2.046L37.8,118.2v-6.833Zm4.13-3.172a7.909,7.909,0,0,1,2.416-.6l.534-.038v14.522l-.534-.038a7.807,7.807,0,0,1-2.416-.547l-.307-.127V108.177Zm4.181-.6a7.439,7.439,0,0,1,2.419.6l.306.127v13.042l-.306.127a7.438,7.438,0,0,1-2.419.6l-.532.035V107.412Zm4.216,1.677a11.554,11.554,0,0,1,1.773,1.652l.127.142v7.688l-.145.146a14.831,14.831,0,0,1-1.755,1.577l-.791.575V108.549Zm3.5,3.891A18.226,18.226,0,0,1,55,114.583l.163.271-.175.262c-.337.505-.685,1.026-1.034,1.492l-.9,1.2V111.82Zm-21.714,2.2c-2.932-4.415-5.7-8.586-11.021-8.586-4.5,0-7.312,2.783-10.157,6.96l-.4.59-.415-.581c-.139-.194-.265-.361-.39-.528s-.258-.345-.4-.545l-.208-.292.21-.29c2.5-3.464,6.106-7.44,11.764-7.44S30.1,108.406,33,112.607v0c.333.475.679,1.009,1.006,1.486,3.024,4.4,5.881,8.554,11.414,8.554,4.4,0,7.016-2.534,9.819-6.623l.417-.607.409.613c.108.163.217.313.326.462s.235.323.352.5l.189.283-.2.279c-2.456,3.493-5.559,7.22-11.316,7.22-6.167,0-9.406-4.019-12.309-8.268v0Q32.669,115.862,32.239,115.212Z" transform="translate(17587.199 -11815.8)" fill="#f7b032"/>
          <path id="Trazado_24484" data-name="Trazado 24484" d="M32.6,116.93l.189.284-.2.278c-2.456,3.494-5.558,7.22-11.315,7.22-6.168,0-9.525-3.828-12.429-8.077v1.349c2.923,3.676,6.44,7.429,12.372,7.429,5.77,0,9.061-3.551,11.519-7.024l.4-.559.422.617c2.38,3.273,5.873,7.03,11.806,7.03,5.77,0,9.061-3.551,11.519-7.025l.382-.54.343.471c2.38,3.273,5.873,7.03,11.806,7.03,5.77,0,9.061-3.551,11.519-7.024l.395-.559.422.617c2.38,3.273,5.873,7.03,11.805,7.03,5.77,0,9.061-3.551,11.519-7.025l.392-.554.376.567c2.38,3.272,5.873,7.029,11.806,7.029,5.77,0,9.061-3.551,11.519-7.024l.4-.558.422.616c2.38,3.273,5.873,7.03,11.805,7.03,5.77,0,9.061-3.551,11.519-7.024l.383-.541.343.472c2.38,3.272,5.873,7.029,11.805,7.029,5.77,0,9.061-3.551,11.519-7.024l.395-.558.422.616c2.38,3.273,5.873,7.03,11.806,7.03,5.77,0,9.061-3.551,11.519-7.024l.4-.559-.014-1.3c-.3-.438-.589-.878-.88-1.316-2.932-4.415-5.7-8.586-11.02-8.586-4.5,0-7.312,2.783-10.158,6.961l-.4.59-.415-.581c-.139-.195-.264-.362-.389-.529s-.259-.345-.4-.545l-.208-.291.21-.29c2.505-3.465,6.106-7.441,11.764-7.441,5.71,0,8.944,3.979,11.859,8.225l-.011-1.071-.386-.548c-2.547-3.612-5.9-7.306-11.462-7.306-5.849,0-9.473,3.909-11.977,7.314l-.333.453-.37-.525c-2.547-3.612-5.9-7.3-11.462-7.3-5.848,0-9.472,3.908-11.976,7.313l-.333.452-.279-.4c-2.546-3.612-5.9-7.306-11.462-7.306-5.848,0-9.472,3.909-11.976,7.314l-.333.453-.37-.525c-2.547-3.612-5.9-7.3-11.462-7.3-5.849,0-9.473,3.908-11.977,7.313l-.325.442-.329-.467c-2.547-3.613-5.9-7.306-11.462-7.306-5.848,0-9.472,3.909-11.976,7.314l-.333.453-.371-.525c-2.546-3.613-5.9-7.306-11.461-7.306-5.849,0-9.473,3.909-11.977,7.314l-.332.452-.279-.4c-2.547-3.613-5.9-7.306-11.462-7.306-5.849,0-9.473,3.909-11.977,7.314l-.333.453-.37-.525c-2.547-3.613-5.9-7.306-11.462-7.306-5.848,0-9.473,3.909-12.441,8v1.053c.333.474.631.732.959,1.209,2.379,3.3,6,8.525,11.539,8.525,4.4,0,7.015-2.534,9.819-6.622l.416-.608.409.613c.109.163.218.313.327.462S32.48,116.754,32.6,116.93Zm-3.682-5.174.9,1.195a18.706,18.706,0,0,1,1.046,1.568l.162.271-.175.262c-.336.5-.684,1.027-1.033,1.492l-.9,1.2Zm-3.391-3.271.791.575a11.555,11.555,0,0,1,1.773,1.652l.128.142v7.689l-.146.145a14.753,14.753,0,0,1-1.755,1.577l-.791.575Zm-3.956-1.137.531.035a7.438,7.438,0,0,1,2.419.6l.307.128v13.041l-.307.128a7.436,7.436,0,0,1-2.419.6l-.531.036Zm-3.957.766.307-.128a7.945,7.945,0,0,1,2.417-.6l.533-.037v14.521l-.533-.038a7.842,7.842,0,0,1-2.417-.546l-.307-.128ZM13.655,111.3l.133-.144A16.219,16.219,0,0,1,16.124,109l.788-.563v12.449l-.788-.563a15.53,15.53,0,0,1-2.337-2.045l-.132-.144Zm-2.531,3.417.184-.276c.062-.092.123-.188.186-.287a7.913,7.913,0,0,1,.581-.83l.881-1.056v5.167l-.913-1.368c-.111-.167-.237-.348-.362-.529s-.258-.373-.373-.545Zm170.59,2.864-.912-1.369c-.112-.167-.237-.348-.363-.529s-.257-.372-.372-.544l-.184-.277.184-.276c.061-.092.123-.188.185-.286a7.867,7.867,0,0,1,.582-.83l.88-1.057Zm3.957,3.449-.788-.563a15.426,15.426,0,0,1-2.337-2.045l-.132-.143v-6.834l.133-.143a16.115,16.115,0,0,1,2.336-2.158l.788-.562Zm3.956.98-.534-.038a7.835,7.835,0,0,1-2.416-.546l-.307-.128V108.259l.307-.128a7.918,7.918,0,0,1,2.417-.6l.533-.038Zm3.956-.712-.306.128a7.436,7.436,0,0,1-2.419.6l-.532.036V107.493l.532.036a7.436,7.436,0,0,1,2.419.6l.306.128Zm3.392-2.612-.146.146a14.823,14.823,0,0,1-1.755,1.576l-.791.575V108.63l.791.575a11.554,11.554,0,0,1,1.773,1.652l.128.142Zm2.8-3.753-.175.262c-.337.505-.685,1.027-1.034,1.492l-.9,1.2V111.9l.9,1.195a18.226,18.226,0,0,1,1.046,1.568Zm-22.055,1.655v0q-.438-.65-.868-1.3c-2.932-4.415-5.7-8.586-11.021-8.586-4.5,0-7.312,2.783-10.157,6.961l-.4.59-.415-.581c-.139-.195-.265-.362-.39-.529s-.258-.344-.4-.545l-.208-.291.21-.29c2.505-3.465,6.106-7.441,11.764-7.441s8.884,3.907,11.778,8.108v0c.333.474.679,1.009,1.006,1.485,3.024,4.4,5.881,8.554,11.414,8.554,4.395,0,7.016-2.534,9.819-6.622l.417-.608.409.613c.108.163.218.313.326.463s.235.322.352.5l.189.284-.2.279c-2.456,3.493-5.559,7.219-11.316,7.219C183.866,124.857,180.627,120.838,177.724,116.59Zm-21.8-2.066c.062-.092.123-.188.186-.286a7.811,7.811,0,0,1,.581-.83l.881-1.057v5.168l-.913-1.369c-.111-.167-.237-.348-.362-.529s-.258-.372-.372-.544l-.185-.277Zm2.48-3.284a16.225,16.225,0,0,1,2.336-2.158l.788-.562v12.448l-.788-.563a15.474,15.474,0,0,1-2.337-2.045l-.132-.143v-6.834Zm4.13-3.173a7.948,7.948,0,0,1,2.417-.6l.533-.038v14.521l-.533-.038a7.813,7.813,0,0,1-2.417-.546l-.306-.128V108.195Zm4.181-.6a7.436,7.436,0,0,1,2.419.6l.307.128v13.041l-.307.128a7.436,7.436,0,0,1-2.419.6l-.531.036V107.429Zm4.216,1.676a11.471,11.471,0,0,1,1.773,1.653l.128.141v7.689l-.146.146a14.657,14.657,0,0,1-1.755,1.576l-.791.575V108.566Zm3.5,3.891a18.568,18.568,0,0,1,1.046,1.569l.162.27-.175.262c-.336.5-.684,1.027-1.033,1.492l-.9,1.2v-5.984Zm-20.743,3.641c-.3-.438-.589-.878-.88-1.316-2.932-4.415-5.7-8.586-11.021-8.586-4.5,0-7.311,2.783-10.157,6.961l-.4.59-.415-.581c-.139-.195-.264-.362-.39-.529s-.258-.345-.4-.545l-.208-.291.209-.29c2.505-3.465,6.106-7.441,11.764-7.441,5.69,0,8.92,3.951,11.827,8.179.29.423.582.876.866,1.289,3.024,4.4,5.88,8.554,11.414,8.554,4.4,0,7.015-2.534,9.819-6.622l.416-.608.409.613c.109.163.218.313.327.463s.234.322.351.5l.189.284-.2.279c-2.456,3.493-5.558,7.22-11.315,7.22-6.1,0-9.329-3.927-12.206-8.119Zm-21.81-2.085c.061-.092.122-.188.185-.286a7.707,7.707,0,0,1,.581-.83l.881-1.057v5.168l-.913-1.369c-.111-.167-.237-.348-.362-.529s-.258-.372-.372-.544l-.184-.277Zm2.479-3.284a16.176,16.176,0,0,1,2.337-2.158l.787-.562v12.448l-.787-.563a15.434,15.434,0,0,1-2.338-2.045l-.132-.143v-6.834Zm4.13-3.173a7.918,7.918,0,0,1,2.417-.6l.533-.038v14.521l-.533-.038a7.848,7.848,0,0,1-2.417-.546l-.306-.128V108.259Zm4.181-.6a7.436,7.436,0,0,1,2.419.6l.307.128V121.3l-.307.128a7.436,7.436,0,0,1-2.419.6l-.531.036V107.493Zm4.216,1.676a11.509,11.509,0,0,1,1.773,1.652l.128.142v7.689l-.146.146a14.744,14.744,0,0,1-1.755,1.576l-.791.575V108.63Zm3.5,3.891a18.46,18.46,0,0,1,1.046,1.568l.162.271-.175.262c-.336.505-.684,1.027-1.033,1.492l-.9,1.2V111.9Zm-20.846,3.494v0q-.438-.65-.869-1.3c-2.932-4.415-5.7-8.586-11.02-8.586-4.5,0-7.312,2.783-10.158,6.961l-.4.59-.415-.581c-.139-.195-.264-.362-.389-.529s-.259-.344-.4-.545l-.208-.291.21-.29c2.505-3.465,6.106-7.441,11.764-7.441s8.883,3.907,11.777,8.108v0c.334.474.679,1.009,1.007,1.485,3.024,4.4,5.88,8.554,11.414,8.554,4.4,0,7.015-2.534,9.819-6.622l.417-.608.408.613c.109.163.218.313.327.463s.234.322.352.5l.188.284-.2.279c-2.456,3.493-5.558,7.219-11.315,7.219C135.675,124.857,132.436,120.838,129.533,116.59Zm-21.8-2.066c.061-.092.123-.188.185-.286a7.824,7.824,0,0,1,.582-.83l.88-1.057v5.168l-.912-1.369c-.112-.167-.237-.348-.363-.529s-.257-.372-.372-.544l-.184-.277Zm2.48-3.284a16.172,16.172,0,0,1,2.336-2.158l.788-.562v12.448l-.788-.563a15.426,15.426,0,0,1-2.337-2.045l-.132-.143v-6.834Zm4.13-3.173a7.94,7.94,0,0,1,2.416-.6l.534-.038v14.521l-.534-.038a7.807,7.807,0,0,1-2.416-.546l-.307-.128V108.195Zm4.181-.6a7.436,7.436,0,0,1,2.419.6l.306.128v13.041l-.306.128a7.436,7.436,0,0,1-2.419.6l-.532.036V107.429Zm4.216,1.676a11.516,11.516,0,0,1,1.773,1.653l.127.141v7.689l-.145.146a14.735,14.735,0,0,1-1.755,1.576l-.791.575V108.566Zm3.5,3.891a18.1,18.1,0,0,1,1.046,1.569l.163.27-.175.262c-.337.5-.685,1.027-1.034,1.492l-.9,1.2v-5.984Zm-20.846,3.494v0c-.276-.413-.547-.844-.819-1.255-2.932-4.416-5.7-8.586-11.021-8.586-4.5,0-7.312,2.783-10.157,6.96l-.4.59-.415-.581c-.139-.195-.265-.361-.39-.528s-.258-.345-.4-.545l-.208-.292.21-.29c2.5-3.464,6.106-7.441,11.764-7.441,5.711,0,8.944,3.98,11.859,8.226h0c.295.433.585.9.876,1.325,3.024,4.4,5.881,8.554,11.414,8.554,4.4,0,7.016-2.534,9.819-6.622l.417-.608.409.613c.108.163.217.313.326.463s.235.322.352.5l.189.284-.2.279c-2.456,3.493-5.559,7.22-11.316,7.22C111.533,124.794,108.294,120.774,105.391,116.526Zm-21.75-2.019c.062-.092.123-.188.186-.287a7.912,7.912,0,0,1,.581-.83l.881-1.056V117.5l-.913-1.368c-.111-.167-.237-.348-.362-.529s-.258-.373-.372-.545l-.185-.276Zm2.48-3.285a16.218,16.218,0,0,1,2.336-2.157l.788-.563v12.449l-.788-.563a15.48,15.48,0,0,1-2.337-2.046l-.132-.143v-6.833Zm4.13-3.172a7.916,7.916,0,0,1,2.417-.6l.533-.038v14.522l-.533-.038a7.813,7.813,0,0,1-2.417-.547l-.306-.127V108.177Zm4.181-.6a7.439,7.439,0,0,1,2.419.6l.307.127v13.042l-.307.127a7.438,7.438,0,0,1-2.419.6l-.531.035V107.412Zm4.216,1.677a11.508,11.508,0,0,1,1.773,1.652l.128.142v7.688l-.146.146a14.753,14.753,0,0,1-1.755,1.577l-.791.575V108.549Zm3.5,3.891a18.7,18.7,0,0,1,1.046,1.568l.162.271-.175.262c-.336.505-.684,1.026-1.033,1.492l-.9,1.2V111.82ZM81.3,116.508v0q-.438-.648-.869-1.3c-2.932-4.415-5.7-8.586-11.02-8.586-4.5,0-7.312,2.783-10.158,6.96l-.4.59-.415-.581c-.139-.194-.264-.361-.389-.528s-.259-.345-.4-.545l-.208-.292.21-.29c2.505-3.464,6.106-7.44,11.764-7.44s8.883,3.906,11.777,8.107v0c.334.475.679,1.009,1.007,1.486,3.024,4.4,5.88,8.554,11.414,8.554,4.395,0,7.015-2.534,9.819-6.623l.416-.607.409.613c.109.163.218.313.327.462s.234.323.351.5l.189.283-.2.279c-2.456,3.493-5.558,7.22-11.315,7.22C87.44,124.776,84.2,120.757,81.3,116.508Zm-21.8-2.065c.061-.092.123-.188.185-.287a8.065,8.065,0,0,1,.581-.83l.881-1.056v5.167l-.912-1.368c-.112-.167-.237-.348-.363-.529s-.258-.373-.372-.545l-.184-.276Zm2.48-3.285A16.167,16.167,0,0,1,64.316,109l.787-.563v12.449l-.787-.563a15.432,15.432,0,0,1-2.337-2.045l-.132-.144V111.3Zm4.129-3.172a7.953,7.953,0,0,1,2.417-.6l.534-.037v14.521l-.534-.038a7.848,7.848,0,0,1-2.417-.546l-.306-.128V108.114Zm4.181-.6a7.444,7.444,0,0,1,2.42.6l.306.128v13.041l-.306.128a7.441,7.441,0,0,1-2.42.6l-.531.036V107.348Zm4.217,1.677a11.507,11.507,0,0,1,1.772,1.652l.128.142v7.689l-.146.145a14.823,14.823,0,0,1-1.754,1.577l-.791.575V108.485Zm3.5,3.891a18.228,18.228,0,0,1,1.046,1.568l.162.271-.174.262c-.337.5-.685,1.027-1.034,1.492l-.9,1.2v-5.984Zm-20.743,3.64c-.3-.437-.589-.877-.88-1.315-2.932-4.416-5.7-8.586-11.02-8.586-4.5,0-7.312,2.783-10.158,6.96l-.4.59-.415-.581c-.139-.195-.264-.361-.389-.528s-.259-.345-.4-.545l-.208-.292.21-.29c2.505-3.464,6.106-7.441,11.764-7.441,5.689,0,8.92,3.951,11.827,8.179.29.424.581.877.865,1.29,3.024,4.4,5.88,8.554,11.414,8.554,4.395,0,7.016-2.534,9.819-6.622l.417-.608.408.613c.109.163.218.313.327.462s.235.323.352.5l.189.284-.2.278c-2.456,3.494-5.559,7.22-11.316,7.22-6.1,0-9.329-3.926-12.206-8.118Zm-21.81-2.084c.061-.092.123-.188.185-.287a7.927,7.927,0,0,1,.582-.83l.88-1.056V117.5l-.912-1.368c-.112-.167-.237-.348-.363-.529s-.257-.373-.372-.545l-.184-.276Zm2.48-3.285a16.166,16.166,0,0,1,2.336-2.157l.788-.563v12.449l-.788-.563a15.431,15.431,0,0,1-2.337-2.046L37.8,118.2v-6.833Zm4.13-3.172a7.909,7.909,0,0,1,2.416-.6l.534-.038v14.522l-.534-.038a7.807,7.807,0,0,1-2.416-.547l-.307-.127V108.177Zm4.181-.6a7.439,7.439,0,0,1,2.419.6l.306.127v13.042l-.306.127a7.438,7.438,0,0,1-2.419.6l-.532.035V107.412Zm4.216,1.677a11.554,11.554,0,0,1,1.773,1.652l.127.142v7.688l-.145.146a14.831,14.831,0,0,1-1.755,1.577l-.791.575V108.549Zm3.5,3.891A18.226,18.226,0,0,1,55,114.583l.163.271-.175.262c-.337.505-.685,1.026-1.034,1.492l-.9,1.2V111.82Zm-21.714,2.2c-2.932-4.415-5.7-8.586-11.021-8.586-4.5,0-7.312,2.783-10.157,6.96l-.4.59-.415-.581c-.139-.194-.265-.361-.39-.528s-.258-.345-.4-.545l-.208-.292.21-.29c2.5-3.464,6.106-7.44,11.764-7.44S30.1,108.406,33,112.607v0c.333.475.679,1.009,1.006,1.486,3.024,4.4,5.881,8.554,11.414,8.554,4.4,0,7.016-2.534,9.819-6.623l.417-.607.409.613c.108.163.217.313.326.462s.235.323.352.5l.189.283-.2.279c-2.456,3.493-5.559,7.22-11.316,7.22-6.167,0-9.406-4.019-12.309-8.268v0Q32.669,115.862,32.239,115.212Z" transform="translate(17780.199 -11815.8)" fill="#f7b032"/>
          <path id="Trazado_24487" data-name="Trazado 24487" d="M32.6,116.93l.189.284-.2.278c-2.456,3.494-5.558,7.22-11.315,7.22-6.168,0-9.6-3.781-12.505-8.03v1.309c2.923,3.676,6.516,7.422,12.448,7.422,5.77,0,9.061-3.551,11.519-7.024l.4-.559.422.617c2.38,3.273,5.873,7.03,11.806,7.03,5.77,0,9.061-3.551,11.519-7.025l.382-.54.343.471c2.38,3.273,5.873,7.03,11.806,7.03,5.77,0,9.061-3.551,11.519-7.024l.395-.559.422.617c2.38,3.273,5.873,7.03,11.805,7.03,5.77,0,9.061-3.551,11.519-7.025l.392-.554.376.567c2.38,3.272,5.873,7.029,11.806,7.029,5.77,0,9.061-3.551,11.519-7.024l.4-.558.422.616c2.38,3.273,5.873,7.03,11.805,7.03,5.77,0,9.061-3.551,11.519-7.024l.383-.541.343.472c2.38,3.272,5.873,7.029,11.805,7.029,5.77,0,9.061-3.551,11.519-7.024l.395-.558.422.616c2.38,3.273,5.873,7.03,11.806,7.03,5.77,0,9.061-3.551,11.519-7.024l.4-.559-.014-1.3c-.3-.438-.589-.878-.88-1.316-2.932-4.415-5.7-8.586-11.02-8.586-4.5,0-7.312,2.783-10.158,6.961l-.4.59-.415-.581c-.139-.195-.264-.362-.389-.529s-.259-.345-.4-.545l-.208-.291.21-.29c2.505-3.465,6.106-7.441,11.764-7.441,5.71,0,8.944,3.979,11.859,8.225l-.011-1.071-.386-.548c-2.547-3.612-5.9-7.306-11.462-7.306-5.849,0-9.473,3.909-11.977,7.314l-.333.453-.37-.525c-2.547-3.612-5.9-7.3-11.462-7.3-5.848,0-9.472,3.908-11.976,7.313l-.333.452-.279-.4c-2.546-3.612-5.9-7.306-11.462-7.306-5.848,0-9.472,3.909-11.976,7.314l-.333.453-.37-.525c-2.547-3.612-5.9-7.3-11.462-7.3-5.849,0-9.473,3.908-11.977,7.313l-.325.442-.329-.467c-2.547-3.613-5.9-7.306-11.462-7.306-5.848,0-9.472,3.909-11.976,7.314l-.333.453-.371-.525c-2.546-3.613-5.9-7.306-11.461-7.306-5.849,0-9.473,3.909-11.977,7.314l-.332.452-.279-.4c-2.547-3.613-5.9-7.306-11.462-7.306-5.849,0-9.473,3.909-11.977,7.314l-.333.453-.37-.525c-2.547-3.613-5.9-7.306-11.462-7.306-5.848,0-9.543,3.952-12.511,8.042v1c.333.474.7.743,1.029,1.22,2.379,3.3,6,8.525,11.539,8.525,4.4,0,7.015-2.534,9.819-6.622l.416-.608.409.613c.109.163.218.313.327.462S32.48,116.754,32.6,116.93Zm-3.682-5.174.9,1.195a18.706,18.706,0,0,1,1.046,1.568l.162.271-.175.262c-.336.5-.684,1.027-1.033,1.492l-.9,1.2Zm-3.391-3.271.791.575a11.555,11.555,0,0,1,1.773,1.652l.128.142v7.689l-.146.145a14.753,14.753,0,0,1-1.755,1.577l-.791.575Zm-3.956-1.137.531.035a7.438,7.438,0,0,1,2.419.6l.307.128v13.041l-.307.128a7.436,7.436,0,0,1-2.419.6l-.531.036Zm-3.957.766.307-.128a7.945,7.945,0,0,1,2.417-.6l.533-.037v14.521l-.533-.038a7.842,7.842,0,0,1-2.417-.546l-.307-.128ZM13.655,111.3l.133-.144A16.219,16.219,0,0,1,16.124,109l.788-.563v12.449l-.788-.563a15.53,15.53,0,0,1-2.337-2.045l-.132-.144Zm-2.531,3.417.184-.276c.062-.092.123-.188.186-.287a7.913,7.913,0,0,1,.581-.83l.881-1.056v5.167l-.913-1.368c-.111-.167-.237-.348-.362-.529s-.258-.373-.373-.545Zm170.59,2.864-.912-1.369c-.112-.167-.237-.348-.363-.529s-.257-.372-.372-.544l-.184-.277.184-.276c.061-.092.123-.188.185-.286a7.867,7.867,0,0,1,.582-.83l.88-1.057Zm3.957,3.449-.788-.563a15.426,15.426,0,0,1-2.337-2.045l-.132-.143v-6.834l.133-.143a16.115,16.115,0,0,1,2.336-2.158l.788-.562Zm3.956.98-.534-.038a7.835,7.835,0,0,1-2.416-.546l-.307-.128V108.259l.307-.128a7.918,7.918,0,0,1,2.417-.6l.533-.038Zm3.956-.712-.306.128a7.436,7.436,0,0,1-2.419.6l-.532.036V107.493l.532.036a7.436,7.436,0,0,1,2.419.6l.306.128Zm3.392-2.612-.146.146a14.823,14.823,0,0,1-1.755,1.576l-.791.575V108.63l.791.575a11.554,11.554,0,0,1,1.773,1.652l.128.142Zm2.8-3.753-.175.262c-.337.505-.685,1.027-1.034,1.492l-.9,1.2V111.9l.9,1.195a18.226,18.226,0,0,1,1.046,1.568Zm-22.055,1.655v0q-.438-.65-.868-1.3c-2.932-4.415-5.7-8.586-11.021-8.586-4.5,0-7.312,2.783-10.157,6.961l-.4.59-.415-.581c-.139-.195-.265-.362-.39-.529s-.258-.344-.4-.545l-.208-.291.21-.29c2.505-3.465,6.106-7.441,11.764-7.441s8.884,3.907,11.778,8.108v0c.333.474.679,1.009,1.006,1.485,3.024,4.4,5.881,8.554,11.414,8.554,4.395,0,7.016-2.534,9.819-6.622l.417-.608.409.613c.108.163.218.313.326.463s.235.322.352.5l.189.284-.2.279c-2.456,3.493-5.559,7.219-11.316,7.219C183.866,124.857,180.627,120.838,177.724,116.59Zm-21.8-2.066c.062-.092.123-.188.186-.286a7.811,7.811,0,0,1,.581-.83l.881-1.057v5.168l-.913-1.369c-.111-.167-.237-.348-.362-.529s-.258-.372-.372-.544l-.185-.277Zm2.48-3.284a16.225,16.225,0,0,1,2.336-2.158l.788-.562v12.448l-.788-.563a15.474,15.474,0,0,1-2.337-2.045l-.132-.143v-6.834Zm4.13-3.173a7.948,7.948,0,0,1,2.417-.6l.533-.038v14.521l-.533-.038a7.813,7.813,0,0,1-2.417-.546l-.306-.128V108.195Zm4.181-.6a7.436,7.436,0,0,1,2.419.6l.307.128v13.041l-.307.128a7.436,7.436,0,0,1-2.419.6l-.531.036V107.429Zm4.216,1.676a11.471,11.471,0,0,1,1.773,1.653l.128.141v7.689l-.146.146a14.657,14.657,0,0,1-1.755,1.576l-.791.575V108.566Zm3.5,3.891a18.568,18.568,0,0,1,1.046,1.569l.162.27-.175.262c-.336.5-.684,1.027-1.033,1.492l-.9,1.2v-5.984Zm-20.743,3.641c-.3-.438-.589-.878-.88-1.316-2.932-4.415-5.7-8.586-11.021-8.586-4.5,0-7.311,2.783-10.157,6.961l-.4.59-.415-.581c-.139-.195-.264-.362-.39-.529s-.258-.345-.4-.545l-.208-.291.209-.29c2.505-3.465,6.106-7.441,11.764-7.441,5.69,0,8.92,3.951,11.827,8.179.29.423.582.876.866,1.289,3.024,4.4,5.88,8.554,11.414,8.554,4.4,0,7.015-2.534,9.819-6.622l.416-.608.409.613c.109.163.218.313.327.463s.234.322.351.5l.189.284-.2.279c-2.456,3.493-5.558,7.22-11.315,7.22-6.1,0-9.329-3.927-12.206-8.119Zm-21.81-2.085c.061-.092.122-.188.185-.286a7.707,7.707,0,0,1,.581-.83l.881-1.057v5.168l-.913-1.369c-.111-.167-.237-.348-.362-.529s-.258-.372-.372-.544l-.184-.277Zm2.479-3.284a16.176,16.176,0,0,1,2.337-2.158l.787-.562v12.448l-.787-.563a15.434,15.434,0,0,1-2.338-2.045l-.132-.143v-6.834Zm4.13-3.173a7.918,7.918,0,0,1,2.417-.6l.533-.038v14.521l-.533-.038a7.848,7.848,0,0,1-2.417-.546l-.306-.128V108.259Zm4.181-.6a7.436,7.436,0,0,1,2.419.6l.307.128V121.3l-.307.128a7.436,7.436,0,0,1-2.419.6l-.531.036V107.493Zm4.216,1.676a11.509,11.509,0,0,1,1.773,1.652l.128.142v7.689l-.146.146a14.744,14.744,0,0,1-1.755,1.576l-.791.575V108.63Zm3.5,3.891a18.46,18.46,0,0,1,1.046,1.568l.162.271-.175.262c-.336.505-.684,1.027-1.033,1.492l-.9,1.2V111.9Zm-20.846,3.494v0q-.438-.65-.869-1.3c-2.932-4.415-5.7-8.586-11.02-8.586-4.5,0-7.312,2.783-10.158,6.961l-.4.59-.415-.581c-.139-.195-.264-.362-.389-.529s-.259-.344-.4-.545l-.208-.291.21-.29c2.505-3.465,6.106-7.441,11.764-7.441s8.883,3.907,11.777,8.108v0c.334.474.679,1.009,1.007,1.485,3.024,4.4,5.88,8.554,11.414,8.554,4.4,0,7.015-2.534,9.819-6.622l.417-.608.408.613c.109.163.218.313.327.463s.234.322.352.5l.188.284-.2.279c-2.456,3.493-5.558,7.219-11.315,7.219C135.675,124.857,132.436,120.838,129.533,116.59Zm-21.8-2.066c.061-.092.123-.188.185-.286a7.824,7.824,0,0,1,.582-.83l.88-1.057v5.168l-.912-1.369c-.112-.167-.237-.348-.363-.529s-.257-.372-.372-.544l-.184-.277Zm2.48-3.284a16.172,16.172,0,0,1,2.336-2.158l.788-.562v12.448l-.788-.563a15.426,15.426,0,0,1-2.337-2.045l-.132-.143v-6.834Zm4.13-3.173a7.94,7.94,0,0,1,2.416-.6l.534-.038v14.521l-.534-.038a7.807,7.807,0,0,1-2.416-.546l-.307-.128V108.195Zm4.181-.6a7.436,7.436,0,0,1,2.419.6l.306.128v13.041l-.306.128a7.436,7.436,0,0,1-2.419.6l-.532.036V107.429Zm4.216,1.676a11.516,11.516,0,0,1,1.773,1.653l.127.141v7.689l-.145.146a14.735,14.735,0,0,1-1.755,1.576l-.791.575V108.566Zm3.5,3.891a18.1,18.1,0,0,1,1.046,1.569l.163.27-.175.262c-.337.5-.685,1.027-1.034,1.492l-.9,1.2v-5.984Zm-20.846,3.494v0c-.276-.413-.547-.844-.819-1.255-2.932-4.416-5.7-8.586-11.021-8.586-4.5,0-7.312,2.783-10.157,6.96l-.4.59-.415-.581c-.139-.195-.265-.361-.39-.528s-.258-.345-.4-.545l-.208-.292.21-.29c2.5-3.464,6.106-7.441,11.764-7.441,5.711,0,8.944,3.98,11.859,8.226h0c.295.433.585.9.876,1.325,3.024,4.4,5.881,8.554,11.414,8.554,4.4,0,7.016-2.534,9.819-6.622l.417-.608.409.613c.108.163.217.313.326.463s.235.322.352.5l.189.284-.2.279c-2.456,3.493-5.559,7.22-11.316,7.22C111.533,124.794,108.294,120.774,105.391,116.526Zm-21.75-2.019c.062-.092.123-.188.186-.287a7.912,7.912,0,0,1,.581-.83l.881-1.056V117.5l-.913-1.368c-.111-.167-.237-.348-.362-.529s-.258-.373-.372-.545l-.185-.276Zm2.48-3.285a16.218,16.218,0,0,1,2.336-2.157l.788-.563v12.449l-.788-.563a15.48,15.48,0,0,1-2.337-2.046l-.132-.143v-6.833Zm4.13-3.172a7.916,7.916,0,0,1,2.417-.6l.533-.038v14.522l-.533-.038a7.813,7.813,0,0,1-2.417-.547l-.306-.127V108.177Zm4.181-.6a7.439,7.439,0,0,1,2.419.6l.307.127v13.042l-.307.127a7.438,7.438,0,0,1-2.419.6l-.531.035V107.412Zm4.216,1.677a11.508,11.508,0,0,1,1.773,1.652l.128.142v7.688l-.146.146a14.753,14.753,0,0,1-1.755,1.577l-.791.575V108.549Zm3.5,3.891a18.7,18.7,0,0,1,1.046,1.568l.162.271-.175.262c-.336.505-.684,1.026-1.033,1.492l-.9,1.2V111.82ZM81.3,116.508v0q-.438-.648-.869-1.3c-2.932-4.415-5.7-8.586-11.02-8.586-4.5,0-7.312,2.783-10.158,6.96l-.4.59-.415-.581c-.139-.194-.264-.361-.389-.528s-.259-.345-.4-.545l-.208-.292.21-.29c2.505-3.464,6.106-7.44,11.764-7.44s8.883,3.906,11.777,8.107v0c.334.475.679,1.009,1.007,1.486,3.024,4.4,5.88,8.554,11.414,8.554,4.395,0,7.015-2.534,9.819-6.623l.416-.607.409.613c.109.163.218.313.327.462s.234.323.351.5l.189.283-.2.279c-2.456,3.493-5.558,7.22-11.315,7.22C87.44,124.776,84.2,120.757,81.3,116.508Zm-21.8-2.065c.061-.092.123-.188.185-.287a8.065,8.065,0,0,1,.581-.83l.881-1.056v5.167l-.912-1.368c-.112-.167-.237-.348-.363-.529s-.258-.373-.372-.545l-.184-.276Zm2.48-3.285A16.167,16.167,0,0,1,64.316,109l.787-.563v12.449l-.787-.563a15.432,15.432,0,0,1-2.337-2.045l-.132-.144V111.3Zm4.129-3.172a7.953,7.953,0,0,1,2.417-.6l.534-.037v14.521l-.534-.038a7.848,7.848,0,0,1-2.417-.546l-.306-.128V108.114Zm4.181-.6a7.444,7.444,0,0,1,2.42.6l.306.128v13.041l-.306.128a7.441,7.441,0,0,1-2.42.6l-.531.036V107.348Zm4.217,1.677a11.507,11.507,0,0,1,1.772,1.652l.128.142v7.689l-.146.145a14.823,14.823,0,0,1-1.754,1.577l-.791.575V108.485Zm3.5,3.891a18.228,18.228,0,0,1,1.046,1.568l.162.271-.174.262c-.337.5-.685,1.027-1.034,1.492l-.9,1.2v-5.984Zm-20.743,3.64c-.3-.437-.589-.877-.88-1.315-2.932-4.416-5.7-8.586-11.02-8.586-4.5,0-7.312,2.783-10.158,6.96l-.4.59-.415-.581c-.139-.195-.264-.361-.389-.528s-.259-.345-.4-.545l-.208-.292.21-.29c2.505-3.464,6.106-7.441,11.764-7.441,5.689,0,8.92,3.951,11.827,8.179.29.424.581.877.865,1.29,3.024,4.4,5.88,8.554,11.414,8.554,4.395,0,7.016-2.534,9.819-6.622l.417-.608.408.613c.109.163.218.313.327.462s.235.323.352.5l.189.284-.2.278c-2.456,3.494-5.559,7.22-11.316,7.22-6.1,0-9.329-3.926-12.206-8.118Zm-21.81-2.084c.061-.092.123-.188.185-.287a7.927,7.927,0,0,1,.582-.83l.88-1.056V117.5l-.912-1.368c-.112-.167-.237-.348-.363-.529s-.257-.373-.372-.545l-.184-.276Zm2.48-3.285a16.166,16.166,0,0,1,2.336-2.157l.788-.563v12.449l-.788-.563a15.431,15.431,0,0,1-2.337-2.046L37.8,118.2v-6.833Zm4.13-3.172a7.909,7.909,0,0,1,2.416-.6l.534-.038v14.522l-.534-.038a7.807,7.807,0,0,1-2.416-.547l-.307-.127V108.177Zm4.181-.6a7.439,7.439,0,0,1,2.419.6l.306.127v13.042l-.306.127a7.438,7.438,0,0,1-2.419.6l-.532.035V107.412Zm4.216,1.677a11.554,11.554,0,0,1,1.773,1.652l.127.142v7.688l-.145.146a14.831,14.831,0,0,1-1.755,1.577l-.791.575V108.549Zm3.5,3.891A18.226,18.226,0,0,1,55,114.583l.163.271-.175.262c-.337.505-.685,1.026-1.034,1.492l-.9,1.2V111.82Zm-21.714,2.2c-2.932-4.415-5.7-8.586-11.021-8.586-4.5,0-7.312,2.783-10.157,6.96l-.4.59-.415-.581c-.139-.194-.265-.361-.39-.528s-.258-.345-.4-.545l-.208-.292.21-.29c2.5-3.464,6.106-7.44,11.764-7.44S30.1,108.406,33,112.607v0c.333.475.679,1.009,1.006,1.486,3.024,4.4,5.881,8.554,11.414,8.554,4.4,0,7.016-2.534,9.819-6.623l.417-.607.409.613c.108.163.217.313.326.462s.235.323.352.5l.189.283-.2.279c-2.456,3.493-5.559,7.22-11.316,7.22-6.167,0-9.406-4.019-12.309-8.268v0Q32.669,115.862,32.239,115.212Z" transform="translate(17973.313 -11815.8)" fill="#f7b032"/>
          <path id="Trazado_24488" data-name="Trazado 24488" d="M32.6,116.93l.189.284-.2.278c-2.456,3.494-5.558,7.22-11.315,7.22-6.168,0-9.6-3.777-12.507-8.026V118c2.923,3.676,6.518,7.415,12.45,7.415,5.77,0,9.061-3.551,11.519-7.024l.4-.559.422.617c2.38,3.273,5.873,7.03,11.806,7.03,5.77,0,9.061-3.551,11.519-7.025l.382-.54.343.471c2.38,3.273,5.873,7.03,11.806,7.03,5.77,0,9.061-3.551,11.519-7.024l.395-.559.422.617c2.38,3.273,5.873,7.03,11.805,7.03,5.77,0,9.061-3.551,11.519-7.025l.392-.554.376.567c2.38,3.272,5.873,7.029,11.806,7.029,5.77,0,9.061-3.551,11.519-7.024l.4-.558.422.616c2.38,3.273,5.873,7.03,11.805,7.03,5.77,0,9.061-3.551,11.519-7.024l.383-.541.343.472c2.38,3.272,5.873,7.029,11.805,7.029,5.77,0,9.061-3.551,11.519-7.024l.395-.558.422.616c2.38,3.273,5.873,7.03,11.806,7.03,5.77,0,9.061-3.551,11.519-7.024l.4-.559-.014-1.3c-.3-.438-.589-.878-.88-1.316-2.932-4.415-5.7-8.586-11.02-8.586-4.5,0-7.312,2.783-10.158,6.961l-.4.59-.415-.581c-.139-.195-.264-.362-.389-.529s-.259-.345-.4-.545l-.208-.291.21-.29c2.505-3.465,6.106-7.441,11.764-7.441,5.71,0,8.944,3.979,11.859,8.225l-.011-1.071-.386-.548c-2.547-3.612-5.9-7.306-11.462-7.306-5.849,0-9.473,3.909-11.977,7.314l-.333.453-.37-.525c-2.547-3.612-5.9-7.3-11.462-7.3-5.848,0-9.472,3.908-11.976,7.313l-.333.452-.279-.4c-2.546-3.612-5.9-7.306-11.462-7.306-5.848,0-9.472,3.909-11.976,7.314l-.333.453-.37-.525c-2.547-3.612-5.9-7.3-11.462-7.3-5.849,0-9.473,3.908-11.977,7.313l-.325.442-.329-.467c-2.547-3.613-5.9-7.306-11.462-7.306-5.848,0-9.472,3.909-11.976,7.314l-.333.453-.371-.525c-2.546-3.613-5.9-7.306-11.461-7.306-5.849,0-9.473,3.909-11.977,7.314l-.332.452-.279-.4c-2.547-3.613-5.9-7.306-11.462-7.306-5.849,0-9.473,3.909-11.977,7.314l-.333.453-.37-.525c-2.547-3.613-5.9-7.306-11.462-7.306-5.848,0-9.547,3.93-12.515,8.02v.991c.333.474.705.772,1.033,1.249,2.379,3.3,6,8.525,11.539,8.525,4.4,0,7.015-2.534,9.819-6.622l.416-.608.409.613c.109.163.218.313.327.462S32.48,116.754,32.6,116.93Zm-3.682-5.174.9,1.195a18.706,18.706,0,0,1,1.046,1.568l.162.271-.175.262c-.336.5-.684,1.027-1.033,1.492l-.9,1.2Zm-3.391-3.271.791.575a11.555,11.555,0,0,1,1.773,1.652l.128.142v7.689l-.146.145a14.753,14.753,0,0,1-1.755,1.577l-.791.575Zm-3.956-1.137.531.035a7.438,7.438,0,0,1,2.419.6l.307.128v13.041l-.307.128a7.436,7.436,0,0,1-2.419.6l-.531.036Zm-3.957.766.307-.128a7.945,7.945,0,0,1,2.417-.6l.533-.037v14.521l-.533-.038a7.842,7.842,0,0,1-2.417-.546l-.307-.128ZM13.655,111.3l.133-.144A16.219,16.219,0,0,1,16.124,109l.788-.563v12.449l-.788-.563a15.53,15.53,0,0,1-2.337-2.045l-.132-.144Zm-2.531,3.417.184-.276c.062-.092.123-.188.186-.287a7.913,7.913,0,0,1,.581-.83l.881-1.056v5.167l-.913-1.368c-.111-.167-.237-.348-.362-.529s-.258-.373-.373-.545Zm170.59,2.864-.912-1.369c-.112-.167-.237-.348-.363-.529s-.257-.372-.372-.544l-.184-.277.184-.276c.061-.092.123-.188.185-.286a7.867,7.867,0,0,1,.582-.83l.88-1.057Zm3.957,3.449-.788-.563a15.426,15.426,0,0,1-2.337-2.045l-.132-.143v-6.834l.133-.143a16.115,16.115,0,0,1,2.336-2.158l.788-.562Zm3.956.98-.534-.038a7.835,7.835,0,0,1-2.416-.546l-.307-.128V108.259l.307-.128a7.918,7.918,0,0,1,2.417-.6l.533-.038Zm3.956-.712-.306.128a7.436,7.436,0,0,1-2.419.6l-.532.036V107.493l.532.036a7.436,7.436,0,0,1,2.419.6l.306.128Zm3.392-2.612-.146.146a14.823,14.823,0,0,1-1.755,1.576l-.791.575V108.63l.791.575a11.554,11.554,0,0,1,1.773,1.652l.128.142Zm2.8-3.753-.175.262c-.337.505-.685,1.027-1.034,1.492l-.9,1.2V111.9l.9,1.195a18.226,18.226,0,0,1,1.046,1.568Zm-22.055,1.655v0q-.438-.65-.868-1.3c-2.932-4.415-5.7-8.586-11.021-8.586-4.5,0-7.312,2.783-10.157,6.961l-.4.59-.415-.581c-.139-.195-.265-.362-.39-.529s-.258-.344-.4-.545l-.208-.291.21-.29c2.505-3.465,6.106-7.441,11.764-7.441s8.884,3.907,11.778,8.108v0c.333.474.679,1.009,1.006,1.485,3.024,4.4,5.881,8.554,11.414,8.554,4.395,0,7.016-2.534,9.819-6.622l.417-.608.409.613c.108.163.218.313.326.463s.235.322.352.5l.189.284-.2.279c-2.456,3.493-5.559,7.219-11.316,7.219C183.866,124.857,180.627,120.838,177.724,116.59Zm-21.8-2.066c.062-.092.123-.188.186-.286a7.811,7.811,0,0,1,.581-.83l.881-1.057v5.168l-.913-1.369c-.111-.167-.237-.348-.362-.529s-.258-.372-.372-.544l-.185-.277Zm2.48-3.284a16.225,16.225,0,0,1,2.336-2.158l.788-.562v12.448l-.788-.563a15.474,15.474,0,0,1-2.337-2.045l-.132-.143v-6.834Zm4.13-3.173a7.948,7.948,0,0,1,2.417-.6l.533-.038v14.521l-.533-.038a7.813,7.813,0,0,1-2.417-.546l-.306-.128V108.195Zm4.181-.6a7.436,7.436,0,0,1,2.419.6l.307.128v13.041l-.307.128a7.436,7.436,0,0,1-2.419.6l-.531.036V107.429Zm4.216,1.676a11.471,11.471,0,0,1,1.773,1.653l.128.141v7.689l-.146.146a14.657,14.657,0,0,1-1.755,1.576l-.791.575V108.566Zm3.5,3.891a18.568,18.568,0,0,1,1.046,1.569l.162.27-.175.262c-.336.5-.684,1.027-1.033,1.492l-.9,1.2v-5.984Zm-20.743,3.641c-.3-.438-.589-.878-.88-1.316-2.932-4.415-5.7-8.586-11.021-8.586-4.5,0-7.311,2.783-10.157,6.961l-.4.59-.415-.581c-.139-.195-.264-.362-.39-.529s-.258-.345-.4-.545l-.208-.291.209-.29c2.505-3.465,6.106-7.441,11.764-7.441,5.69,0,8.92,3.951,11.827,8.179.29.423.582.876.866,1.289,3.024,4.4,5.88,8.554,11.414,8.554,4.4,0,7.015-2.534,9.819-6.622l.416-.608.409.613c.109.163.218.313.327.463s.234.322.351.5l.189.284-.2.279c-2.456,3.493-5.558,7.22-11.315,7.22-6.1,0-9.329-3.927-12.206-8.119Zm-21.81-2.085c.061-.092.122-.188.185-.286a7.707,7.707,0,0,1,.581-.83l.881-1.057v5.168l-.913-1.369c-.111-.167-.237-.348-.362-.529s-.258-.372-.372-.544l-.184-.277Zm2.479-3.284a16.176,16.176,0,0,1,2.337-2.158l.787-.562v12.448l-.787-.563a15.434,15.434,0,0,1-2.338-2.045l-.132-.143v-6.834Zm4.13-3.173a7.918,7.918,0,0,1,2.417-.6l.533-.038v14.521l-.533-.038a7.848,7.848,0,0,1-2.417-.546l-.306-.128V108.259Zm4.181-.6a7.436,7.436,0,0,1,2.419.6l.307.128V121.3l-.307.128a7.436,7.436,0,0,1-2.419.6l-.531.036V107.493Zm4.216,1.676a11.509,11.509,0,0,1,1.773,1.652l.128.142v7.689l-.146.146a14.744,14.744,0,0,1-1.755,1.576l-.791.575V108.63Zm3.5,3.891a18.46,18.46,0,0,1,1.046,1.568l.162.271-.175.262c-.336.505-.684,1.027-1.033,1.492l-.9,1.2V111.9Zm-20.846,3.494v0q-.438-.65-.869-1.3c-2.932-4.415-5.7-8.586-11.02-8.586-4.5,0-7.312,2.783-10.158,6.961l-.4.59-.415-.581c-.139-.195-.264-.362-.389-.529s-.259-.344-.4-.545l-.208-.291.21-.29c2.505-3.465,6.106-7.441,11.764-7.441s8.883,3.907,11.777,8.108v0c.334.474.679,1.009,1.007,1.485,3.024,4.4,5.88,8.554,11.414,8.554,4.4,0,7.015-2.534,9.819-6.622l.417-.608.408.613c.109.163.218.313.327.463s.234.322.352.5l.188.284-.2.279c-2.456,3.493-5.558,7.219-11.315,7.219C135.675,124.857,132.436,120.838,129.533,116.59Zm-21.8-2.066c.061-.092.123-.188.185-.286a7.824,7.824,0,0,1,.582-.83l.88-1.057v5.168l-.912-1.369c-.112-.167-.237-.348-.363-.529s-.257-.372-.372-.544l-.184-.277Zm2.48-3.284a16.172,16.172,0,0,1,2.336-2.158l.788-.562v12.448l-.788-.563a15.426,15.426,0,0,1-2.337-2.045l-.132-.143v-6.834Zm4.13-3.173a7.94,7.94,0,0,1,2.416-.6l.534-.038v14.521l-.534-.038a7.807,7.807,0,0,1-2.416-.546l-.307-.128V108.195Zm4.181-.6a7.436,7.436,0,0,1,2.419.6l.306.128v13.041l-.306.128a7.436,7.436,0,0,1-2.419.6l-.532.036V107.429Zm4.216,1.676a11.516,11.516,0,0,1,1.773,1.653l.127.141v7.689l-.145.146a14.735,14.735,0,0,1-1.755,1.576l-.791.575V108.566Zm3.5,3.891a18.1,18.1,0,0,1,1.046,1.569l.163.27-.175.262c-.337.5-.685,1.027-1.034,1.492l-.9,1.2v-5.984Zm-20.846,3.494v0c-.276-.413-.547-.844-.819-1.255-2.932-4.416-5.7-8.586-11.021-8.586-4.5,0-7.312,2.783-10.157,6.96l-.4.59-.415-.581c-.139-.195-.265-.361-.39-.528s-.258-.345-.4-.545l-.208-.292.21-.29c2.5-3.464,6.106-7.441,11.764-7.441,5.711,0,8.944,3.98,11.859,8.226h0c.295.433.585.9.876,1.325,3.024,4.4,5.881,8.554,11.414,8.554,4.4,0,7.016-2.534,9.819-6.622l.417-.608.409.613c.108.163.217.313.326.463s.235.322.352.5l.189.284-.2.279c-2.456,3.493-5.559,7.22-11.316,7.22C111.533,124.794,108.294,120.774,105.391,116.526Zm-21.75-2.019c.062-.092.123-.188.186-.287a7.912,7.912,0,0,1,.581-.83l.881-1.056V117.5l-.913-1.368c-.111-.167-.237-.348-.362-.529s-.258-.373-.372-.545l-.185-.276Zm2.48-3.285a16.218,16.218,0,0,1,2.336-2.157l.788-.563v12.449l-.788-.563a15.48,15.48,0,0,1-2.337-2.046l-.132-.143v-6.833Zm4.13-3.172a7.916,7.916,0,0,1,2.417-.6l.533-.038v14.522l-.533-.038a7.813,7.813,0,0,1-2.417-.547l-.306-.127V108.177Zm4.181-.6a7.439,7.439,0,0,1,2.419.6l.307.127v13.042l-.307.127a7.438,7.438,0,0,1-2.419.6l-.531.035V107.412Zm4.216,1.677a11.508,11.508,0,0,1,1.773,1.652l.128.142v7.688l-.146.146a14.753,14.753,0,0,1-1.755,1.577l-.791.575V108.549Zm3.5,3.891a18.7,18.7,0,0,1,1.046,1.568l.162.271-.175.262c-.336.505-.684,1.026-1.033,1.492l-.9,1.2V111.82ZM81.3,116.508v0q-.438-.648-.869-1.3c-2.932-4.415-5.7-8.586-11.02-8.586-4.5,0-7.312,2.783-10.158,6.96l-.4.59-.415-.581c-.139-.194-.264-.361-.389-.528s-.259-.345-.4-.545l-.208-.292.21-.29c2.505-3.464,6.106-7.44,11.764-7.44s8.883,3.906,11.777,8.107v0c.334.475.679,1.009,1.007,1.486,3.024,4.4,5.88,8.554,11.414,8.554,4.395,0,7.015-2.534,9.819-6.623l.416-.607.409.613c.109.163.218.313.327.462s.234.323.351.5l.189.283-.2.279c-2.456,3.493-5.558,7.22-11.315,7.22C87.44,124.776,84.2,120.757,81.3,116.508Zm-21.8-2.065c.061-.092.123-.188.185-.287a8.065,8.065,0,0,1,.581-.83l.881-1.056v5.167l-.912-1.368c-.112-.167-.237-.348-.363-.529s-.258-.373-.372-.545l-.184-.276Zm2.48-3.285A16.167,16.167,0,0,1,64.316,109l.787-.563v12.449l-.787-.563a15.432,15.432,0,0,1-2.337-2.045l-.132-.144V111.3Zm4.129-3.172a7.953,7.953,0,0,1,2.417-.6l.534-.037v14.521l-.534-.038a7.848,7.848,0,0,1-2.417-.546l-.306-.128V108.114Zm4.181-.6a7.444,7.444,0,0,1,2.42.6l.306.128v13.041l-.306.128a7.441,7.441,0,0,1-2.42.6l-.531.036V107.348Zm4.217,1.677a11.507,11.507,0,0,1,1.772,1.652l.128.142v7.689l-.146.145a14.823,14.823,0,0,1-1.754,1.577l-.791.575V108.485Zm3.5,3.891a18.228,18.228,0,0,1,1.046,1.568l.162.271-.174.262c-.337.5-.685,1.027-1.034,1.492l-.9,1.2v-5.984Zm-20.743,3.64c-.3-.437-.589-.877-.88-1.315-2.932-4.416-5.7-8.586-11.02-8.586-4.5,0-7.312,2.783-10.158,6.96l-.4.59-.415-.581c-.139-.195-.264-.361-.389-.528s-.259-.345-.4-.545l-.208-.292.21-.29c2.505-3.464,6.106-7.441,11.764-7.441,5.689,0,8.92,3.951,11.827,8.179.29.424.581.877.865,1.29,3.024,4.4,5.88,8.554,11.414,8.554,4.395,0,7.016-2.534,9.819-6.622l.417-.608.408.613c.109.163.218.313.327.462s.235.323.352.5l.189.284-.2.278c-2.456,3.494-5.559,7.22-11.316,7.22-6.1,0-9.329-3.926-12.206-8.118Zm-21.81-2.084c.061-.092.123-.188.185-.287a7.927,7.927,0,0,1,.582-.83l.88-1.056V117.5l-.912-1.368c-.112-.167-.237-.348-.363-.529s-.257-.373-.372-.545l-.184-.276Zm2.48-3.285a16.166,16.166,0,0,1,2.336-2.157l.788-.563v12.449l-.788-.563a15.431,15.431,0,0,1-2.337-2.046L37.8,118.2v-6.833Zm4.13-3.172a7.909,7.909,0,0,1,2.416-.6l.534-.038v14.522l-.534-.038a7.807,7.807,0,0,1-2.416-.547l-.307-.127V108.177Zm4.181-.6a7.439,7.439,0,0,1,2.419.6l.306.127v13.042l-.306.127a7.438,7.438,0,0,1-2.419.6l-.532.035V107.412Zm4.216,1.677a11.554,11.554,0,0,1,1.773,1.652l.127.142v7.688l-.145.146a14.831,14.831,0,0,1-1.755,1.577l-.791.575V108.549Zm3.5,3.891A18.226,18.226,0,0,1,55,114.583l.163.271-.175.262c-.337.505-.685,1.026-1.034,1.492l-.9,1.2V111.82Zm-21.714,2.2c-2.932-4.415-5.7-8.586-11.021-8.586-4.5,0-7.312,2.783-10.157,6.96l-.4.59-.415-.581c-.139-.194-.265-.361-.39-.528s-.258-.345-.4-.545l-.208-.292.21-.29c2.5-3.464,6.106-7.44,11.764-7.44S30.1,108.406,33,112.607v0c.333.475.679,1.009,1.006,1.486,3.024,4.4,5.881,8.554,11.414,8.554,4.4,0,7.016-2.534,9.819-6.623l.417-.607.409.613c.108.163.217.313.326.462s.235.323.352.5l.189.283-.2.279c-2.456,3.493-5.559,7.22-11.316,7.22-6.167,0-9.406-4.019-12.309-8.268v0Q32.669,115.862,32.239,115.212Z" transform="translate(18166.426 -11815.8)" fill="#f7b032"/>
        </g>
      </g>
      <rect id="Rectángulo_368" data-name="Rectángulo 368" width="965.316" height="21.76" transform="translate(17403 -11818)" fill="none"/>
    </g>
    <path id="Trazado_24491" data-name="Trazado 24491" d="M.432-.671,1-.485V6.483H.432Z" transform="translate(17812 -11810)" fill="#f7b032"/>
  </g>
</svg>
