<svg xmlns="http://www.w3.org/2000/svg" width="112.82" height="15.531" viewBox="0 0 112.82 15.531">
  <path id="Trazado_47641" data-name="Trazado 47641" d="M-53.184-2.9V-6.3h6.962V-9h-6.962v-3h7.648v-2.9H-56.086V0H-45.2V-2.9ZM-36.5.314c4.314,0,6.864-2.765,7.236-6.138h-3.118A4.1,4.1,0,0,1-36.5-2.294c-2.726,0-4.2-2.236-4.2-5.138,0-2.922,1.451-5.177,4.177-5.177A4.116,4.116,0,0,1-32.377-9.1h3.118A6.811,6.811,0,0,0-36.4-15.218c-4.648,0-7.413,3.334-7.413,7.864C-43.81-3.02-41.261.314-36.5.314Zm16.238,0c4.314,0,6.864-2.765,7.236-6.138H-16.14a4.1,4.1,0,0,1-4.118,3.53c-2.726,0-4.2-2.236-4.2-5.138,0-2.922,1.451-5.177,4.177-5.177A4.116,4.116,0,0,1-16.14-9.1h3.118a6.811,6.811,0,0,0-7.138-6.119c-4.648,0-7.413,3.334-7.413,7.864C-27.573-3.02-25.023.314-20.258.314ZM-11.2,0h6.3C-1.726,0,.373-1.588.373-4.354A3.608,3.608,0,0,0-2.51-8.1a2.863,2.863,0,0,0,2.1-2.942c0-2.647-2.157-3.863-5.2-3.863H-11.2Zm2.922-8.9v-3.451h2.392c1.569,0,2.412.686,2.412,1.8S-4.432-8.9-6.06-8.9Zm0,6.354v-4.2h2.589c1.8,0,3,.706,3,2.1,0,1.471-1.255,2.1-2.922,2.1ZM2.608.02H14.2V-2.9H7.256a29.732,29.732,0,0,0,4.236-2.942C13.178-7.354,14-8.766,14-10.57c0-2.706-1.863-4.648-5.726-4.648C4.02-15.218,2.02-12.9,2.02-9.707a4.6,4.6,0,0,0,.157,1.216H5.236A5.191,5.191,0,0,1,5.06-9.648a2.828,2.828,0,0,1,3.118-3c1.647,0,2.745.824,2.745,2.2,0,1.1-.726,2.138-2.294,3.432C7.315-5.962,5.452-4.746,2.608-2.9ZM22.435.314c4.236,0,6.491-3.373,6.491-7.766s-2.255-7.766-6.491-7.766-6.511,3.373-6.511,7.766S18.2.314,22.435.314Zm0-2.569c-2.255,0-3.451-2.236-3.451-5.2s1.2-5.2,3.451-5.2,3.432,2.236,3.432,5.2S24.69-2.255,22.435-2.255ZM31.24.02H42.83V-2.9H35.887a29.732,29.732,0,0,0,4.236-2.942c1.687-1.51,2.51-2.922,2.51-4.726,0-2.706-1.863-4.648-5.726-4.648-4.256,0-6.256,2.314-6.256,5.511a4.6,4.6,0,0,0,.157,1.216h3.059a5.191,5.191,0,0,1-.176-1.157,2.828,2.828,0,0,1,3.118-3c1.647,0,2.745.824,2.745,2.2,0,1.1-.726,2.138-2.294,3.432C35.946-5.962,34.083-4.746,31.24-2.9Zm13.9,0h11.59V-2.9H49.791a29.732,29.732,0,0,0,4.236-2.942c1.687-1.51,2.51-2.922,2.51-4.726,0-2.706-1.863-4.648-5.726-4.648-4.256,0-6.256,2.314-6.256,5.511a4.6,4.6,0,0,0,.157,1.216h3.059a5.191,5.191,0,0,1-.176-1.157,2.828,2.828,0,0,1,3.118-3c1.647,0,2.745.824,2.745,2.2,0,1.1-.726,2.138-2.294,3.432C49.85-5.962,47.987-4.746,45.144-2.9Z" transform="translate(56.086 15.218)" fill="#0081a7"/>
</svg>
