<svg xmlns="http://www.w3.org/2000/svg" xmlns:xlink="http://www.w3.org/1999/xlink" width="128" height="128" viewBox="0 0 128 128">
  <defs>
    <clipPath id="clip-path">
      <rect id="Rect치ngulo_373" data-name="Rect치ngulo 373" width="96.765" height="36.016" transform="translate(41.085 27.277)" fill="none"/>
    </clipPath>
    <clipPath id="clip-path-2">
      <path id="Trazado_47597" data-name="Trazado 47597" d="M32.018,93.637a61.477,61.477,0,0,0,119.139,0Z" fill="none"/>
    </clipPath>
  </defs>
  <g id="Grupo_719" data-name="Grupo 719" transform="translate(-16366 13154)">
    <rect id="Rect치ngulo_376" data-name="Rect치ngulo 376" width="128" height="128" transform="translate(16366 -13154)" fill="none"/>
    <g id="Grupo_718" data-name="Grupo 718" transform="translate(60.543 -64.796)">
      <path id="Trazado_47641" data-name="Trazado 47641" d="M-53.184-2.9V-6.3h6.962V-9h-6.962v-3h7.648v-2.9H-56.086V0H-45.2V-2.9ZM-36.5.314c4.314,0,6.864-2.765,7.236-6.138h-3.118A4.1,4.1,0,0,1-36.5-2.294c-2.726,0-4.2-2.236-4.2-5.138,0-2.922,1.451-5.177,4.177-5.177A4.116,4.116,0,0,1-32.377-9.1h3.118A6.811,6.811,0,0,0-36.4-15.218c-4.648,0-7.413,3.334-7.413,7.864C-43.81-3.02-41.261.314-36.5.314Zm16.238,0c4.314,0,6.864-2.765,7.236-6.138H-16.14a4.1,4.1,0,0,1-4.118,3.53c-2.726,0-4.2-2.236-4.2-5.138,0-2.922,1.451-5.177,4.177-5.177A4.116,4.116,0,0,1-16.14-9.1h3.118a6.811,6.811,0,0,0-7.138-6.119c-4.648,0-7.413,3.334-7.413,7.864C-27.573-3.02-25.023.314-20.258.314ZM-11.2,0h6.3C-1.726,0,.373-1.588.373-4.354A3.608,3.608,0,0,0-2.51-8.1a2.863,2.863,0,0,0,2.1-2.942c0-2.647-2.157-3.863-5.2-3.863H-11.2Zm2.922-8.9v-3.451h2.392c1.569,0,2.412.686,2.412,1.8S-4.432-8.9-6.06-8.9Zm0,6.354v-4.2h2.589c1.8,0,3,.706,3,2.1,0,1.471-1.255,2.1-2.922,2.1ZM2.608.02H14.2V-2.9H7.256a29.732,29.732,0,0,0,4.236-2.942C13.178-7.354,14-8.766,14-10.57c0-2.706-1.863-4.648-5.726-4.648C4.02-15.218,2.02-12.9,2.02-9.707a4.6,4.6,0,0,0,.157,1.216H5.236A5.191,5.191,0,0,1,5.06-9.648a2.828,2.828,0,0,1,3.118-3c1.647,0,2.745.824,2.745,2.2,0,1.1-.726,2.138-2.294,3.432C7.315-5.962,5.452-4.746,2.608-2.9ZM22.435.314c4.236,0,6.491-3.373,6.491-7.766s-2.255-7.766-6.491-7.766-6.511,3.373-6.511,7.766S18.2.314,22.435.314Zm0-2.569c-2.255,0-3.451-2.236-3.451-5.2s1.2-5.2,3.451-5.2,3.432,2.236,3.432,5.2S24.69-2.255,22.435-2.255ZM31.24.02H42.83V-2.9H35.887a29.732,29.732,0,0,0,4.236-2.942c1.687-1.51,2.51-2.922,2.51-4.726,0-2.706-1.863-4.648-5.726-4.648-4.256,0-6.256,2.314-6.256,5.511a4.6,4.6,0,0,0,.157,1.216h3.059a5.191,5.191,0,0,1-.176-1.157,2.828,2.828,0,0,1,3.118-3c1.647,0,2.745.824,2.745,2.2,0,1.1-.726,2.138-2.294,3.432C35.946-5.962,34.083-4.746,31.24-2.9Zm13.9,0h11.59V-2.9H49.791a29.732,29.732,0,0,0,4.236-2.942c1.687-1.51,2.51-2.922,2.51-4.726,0-2.706-1.863-4.648-5.726-4.648-4.256,0-6.256,2.314-6.256,5.511a4.6,4.6,0,0,0,.157,1.216h3.059a5.191,5.191,0,0,1-.176-1.157,2.828,2.828,0,0,1,3.118-3c1.647,0,2.745.824,2.745,2.2,0,1.1-.726,2.138-2.294,3.432C49.85-5.962,47.987-4.746,45.144-2.9Z" transform="translate(16368.715 -13015.289)" fill="#0081a7"/>
      <g id="Grupo_715" data-name="Grupo 715" transform="translate(16277 -13103.205)">
        <g id="Grupo_706" data-name="Grupo 706" clip-path="url(#clip-path)">
          <path id="Trazado_47593" data-name="Trazado 47593" d="M129.147,42.494a1.28,1.28,0,0,1-.158-.384c-.027-.514-.03-1.03-.033-1.545,0-.178,0-.4.251-.374.088.011.208.217.215.339.031.536.034,1.074.027,1.611a1.086,1.086,0,0,1-.134.345ZM38.992,59.373c.185.154.377.3.553.465s.351.357.563.575c.277-.475-.03-.682-.219-.893a8.1,8.1,0,0,0-.712-.638c.447-.337,1.059.094,1.474-.422-.552-.362-1.134-.029-1.687-.2a4.651,4.651,0,0,1,1.717-1.522c-.456-.295-.456-.295-2.111,1.018.061-.3.09-.508.15-.708.071-.237.185-.461.247-.7a.306.306,0,0,0-.1-.276.3.3,0,0,0-.277.082,1.292,1.292,0,0,0-.213.416c-.13.4-.242.8-.334,1.112a5.973,5.973,0,0,0-1.878-.2,6.27,6.27,0,0,0-1.65.946,1.25,1.25,0,0,1,.48-.986c.063-.049.05-.195.072-.3-.121-.013-.3-.083-.352-.029a3.35,3.35,0,0,0-.532.672,4.189,4.189,0,0,0-.253.714c-.2-.361-.339-.647-.519-.9-.071-.1-.243-.129-.368-.19a1.5,1.5,0,0,0-.013.427,2.669,2.669,0,0,0,.215.418c.081.174.149.354.242.579-1.521-.6-1.521-.6-1.845-.175.436.3,1.106.141,1.465.736a3.769,3.769,0,0,0-.6.007.973.973,0,0,0-.423.186c-.157.125-.211.292.03.457.324-.1.668-.383,1.034-.031a3.176,3.176,0,0,0-.559.479,7.444,7.444,0,0,0-.66,1.08c-.094.187,0,.352.332.351a2.39,2.39,0,0,1,1.656-1.671,11.036,11.036,0,0,1,.032,2.059c-.167.013-.3.03-.431.031-.563.008-1.127.008-1.69.018-.208,0-.429.011-.354.328.521.144,9.31.135,9.947-.026l.24-9.308c.149.089.305.259.442.244.17-.017.323-.187.483-.292.63.551.731.557,1.285.064.052.034.1.072.161.107.458.278.693.2.858-.29.05-.148.055-.311.1-.46.066-.2.2-.292.414-.187.194.853.233.929.624.935.195,0,.48,0,.57-.122a4.157,4.157,0,0,0,.4-.869c.877.024.877.024,1.375-.585-.05.35-.1.61-.123.871-.061.6.128.8.713.749.426-.039.849-.111,1.275-.148.258-.022.519,0,.834,0-.034.3-.078.54-.087.783-.02.508.218.772.71.777q.675.006,1.35-.034a.653.653,0,0,0,.705-.667c.042-.379.014-.765.035-1.147.012-.236.058-.47.091-.718H56.2a6.6,6.6,0,0,1,.145.747c.031.381.026.765.037,1.147.021.7.062.737.769.8.035,0,.067.05.1.076-.112.79.021.936.791.876q.906-.07,1.811-.131c.3-.021.648-.063.734-.376.128-.467.448-.43.789-.43.495,0,.992.018,1.486-.01.74-.043.958-.329.85-1.049-.026-.176-.054-.351-.077-.506l.372-.4c.292.072.574.238.76.164a.791.791,0,0,1,.557.017c.543.126.747.012,1-.5a.6.6,0,0,1,.121-.131c.361.052.284.323.273.527-.041.742-.117,1.482-.151,2.224-.022.473.071.556.527.587.2.014.406.012.608.006.56-.018.6-.058.714-.593.08-.389.162-.779.227-1.094l4.048.093c0,.275-.013.5,0,.721.012.152.015.368.11.44.443.334.367.783.328,1.229-.128,1.458-.268,2.915-.389,4.373-.039.471-.045.946-.039,1.418.006.385.158.572.5.6.673.049,1.348.071,2.022.1a.36.36,0,0,0,.423-.4c0-.158,0-.316,0-.473q0-2.6,0-5.205c0-.2.018-.4.031-.653,2.047-.609,4.071-1.218,6.1-1.806a1.552,1.552,0,0,1,.72.008c1.212.255,2.418.535,3.626.8.586.13,1.174.249,1.728.366,0,.863.007,1.65,0,2.436-.009.811-.07,1.623-.039,2.432a9.879,9.879,0,0,0-.009,2.318,2.541,2.541,0,0,0,1.587-.065c.014-.161.041-.337.043-.513.013-1.149.019-2.3.032-3.446,0-.261-.076-.554.228-.72.726.163,1.072.057,1.441-.426a2.712,2.712,0,0,0,.479-.006,3.261,3.261,0,0,0,.481-.166c.164.731.414.856,1.092.567.157-.066.321-.113.6-.209v4.743c.533,0,.976.017,1.418.012.582-.006.651-.064.662-.668.027-1.552.158-3.1.119-4.655-.049-1.934.056-3.873.1-5.809a3.384,3.384,0,0,1,.069-.433h4.966V55.5a1.238,1.238,0,0,0,1.078.13c.436-.057.489-.125.474-.561,0-.134-.038-.267-.05-.4a11.325,11.325,0,0,1-.051-1.832,2.693,2.693,0,0,0,.819.247c.175-.007.341-.24.51-.371.309.564.76.283,1.164.111.068.668.112,1.3.209,1.918a.649.649,0,0,0,1.281-.163c.08-.851.116-1.707.151-2.562.014-.341-.029-.682-.461-.828a2.518,2.518,0,0,1,.549-.042c.766.005.785.005.79-.785a.913.913,0,0,1,.4-.793,3.034,3.034,0,0,1,3.712.243,1.5,1.5,0,0,0,1.319.527c.4-.041.808-.067,1.212-.09.506-.029,1.013-.049,1.606-.077-.038,1.719-.081,3.336-.1,4.954a3.7,3.7,0,0,0,.149.757c.2,0,.312,0,.424,0,.743.012.749.012.735-.747-.038-1.958-.1-3.915-.117-5.873-.017-1.846,0-3.693.015-5.54,0-.359-.088-.787.436-.916.043-.011.067-.11.093-.171.2-.472.4-.944.606-1.439l-.523-.611.58-.816.554.853c-.329.387-.545.787-.084,1.227a.389.389,0,0,1,.057.258.787.787,0,0,0,.7.926v3.549a.838.838,0,0,0,1.151.015c.2-.141.4-.291.613-.419.129-.078.293-.189.419-.166a1.316,1.316,0,0,0,1.111-.461c.447.269.87.562,1.327.784a5.809,5.809,0,0,0,1.266.446.556.556,0,0,0,.76-.6,7.019,7.019,0,0,0-.221-2.6.456.456,0,0,1,.012-.313,3.547,3.547,0,0,0,.1-1.8c-.082-.964-.131-1.93-.19-2.9a.66.66,0,0,1,.041-.185l.611-.117a2.186,2.186,0,0,0-.01-.626.732.732,0,0,1,.4-.951,1.057,1.057,0,0,0,.534-1.086,4,4,0,0,1,0-.428c.453-.132.465-.495.431-.87-.018-.2-.08-.4-.091-.6a.868.868,0,0,1,.1-.3,2.293,2.293,0,0,1,.115,1.023c-.051.461.348.579.572.787a1.32,1.32,0,0,1,.01.246,1.122,1.122,0,0,0,.623,1.349c.3.143.274.426.259.706-.017.311-.054.633.345.792.095.038.162.258.165.4.014.675.006,1.35,0,2.025a15.464,15.464,0,0,0-.016,1.552c.037.394.266.774.288,1.167.022.412-.154.833-.151,1.249.012,1.442.066,2.883.1,4.324.026,1.1.143,1.211,1.259,1.109.134-.012.267-.042.4-.05.373-.022.747-.037,1.16-.056.01.224.023.378.022.531-.015,1.6-.026,3.2-.051,4.8-.013.8.08.927.855.929.991,0,1.983-.008,2.973-.041a4.391,4.391,0,0,1,2.259.573c.712.381,1.465.687,2.206,1.011.927.4,1.867.779,2.788,1.2a5.888,5.888,0,0,0,1.8.527c1.207.134,2.408.318,3.613.466a10.314,10.314,0,0,0,1.413.106,4.674,4.674,0,0,1,1.8.144c.2.078.409.035.433-.285a3.439,3.439,0,0,0-1.616-.39c-.068-.34-.12-.671-.2-.995a.968.968,0,0,1,.255-.988c.25-.259.473-.544.706-.818q1.663-1.957,3.322-3.916a2.486,2.486,0,0,0,.325-.509.247.247,0,0,0-.077-.228.268.268,0,0,0-.243.007,1.143,1.143,0,0,0-.225.248q-1.9,2.242-3.8,4.484a5.473,5.473,0,0,1-.4.377c-.049-.635-.078-1.166-.135-1.694a1.032,1.032,0,0,1,.292-.86c.4-.43.787-.867,1.167-1.312.2-.228.362-.481.561-.748-.39-.112-.389-.111-1.026.562-.3.319-.6.634-.985,1.033-.116-1.418.089-2.728-.112-4.056-.443.115-.352.4-.354.622-.011,1.194-.017,2.388-.007,3.582a1.37,1.37,0,0,1-.262.878c-.532.727-1.032,1.477-1.549,2.214-.078.111-.179.206-.339.386,0-.321-.008-.523,0-.724.055-1.169.115-2.339.17-3.509.008-.188.108-.412-.229-.555a1.1,1.1,0,0,0-.19.347c-.06.446-.1.9-.126,1.344-.062,1.215-.1,2.431-.168,3.645a6.9,6.9,0,0,1-.158.864l-.935-.166c0-.444-.016-.825,0-1.205.047-.922.085-1.846.173-2.764.146-1.523.323-3.044.5-4.564.047-.4.155-.8.205-1.2.014-.106-.082-.225-.128-.339-.1.088-.258.155-.3.267a3.258,3.258,0,0,0-.151.656,59.044,59.044,0,0,0-.684,6.648c-.052.826-.106,1.651-.163,2.553-.472-.1-.888-.181-1.3-.28a1.558,1.558,0,0,1-1.374-1.505c-.017-.29-.134-.573-.159-.862a2.026,2.026,0,0,1,.043-.786,22.055,22.055,0,0,1,2.335-5.589c.1-.152.187-.32-.075-.5a1.541,1.541,0,0,0-.324.265,4.507,4.507,0,0,0-.49.806c-.5,1.18-.974,2.37-1.463,3.554-.078.187-.076.427-.334.584-.034-.167-.063-.271-.076-.378-.194-1.541-.376-3.084-.588-4.622-.031-.223.081-.662-.322-.607-.317.043-.166.421-.139.639.219,1.787.408,3.581.717,5.353a3.338,3.338,0,0,1-.442,2.263c-.077-.249-.144-.413-.178-.583-.139-.707-.262-1.417-.406-2.122a3.617,3.617,0,0,0-.211-.544c-.136.081-.242.121-.239.146.13.989.27,1.976.416,3.013-.39-.1-.848-.1-1.016-.458a12.079,12.079,0,0,1-.81-2.21.708.708,0,0,0-.584-.593,58.263,58.263,0,0,0,.982-7.3c-.219.156-.371.206-.4.3a4.788,4.788,0,0,0-.159.792c-.228,1.672-.443,3.345-.677,5.016-.135.963-.3,1.922-.446,2.883a.905.905,0,0,1-.245-.483c-.057-.31-.087-.624-.137-.935-.03-.182-.084-.4-.32-.323-.082.025-.155.25-.145.377.036.437.11.871.173,1.331l-1.663-.085c-.031-.842-.041-1.647-.007-2.494.5.249.24.955.845,1.05.216-.546-.213-.943-.31-1.532.378.185.664.339.962.463a.3.3,0,0,0,.285-.053.3.3,0,0,0-.044-.289,3.588,3.588,0,0,0-.626-.387c-.192-.095-.4-.151-.751-.276.356-.2.6-.35.843-.482a4.729,4.729,0,0,0,.543-.269c.081-.059.094-.212.138-.323-.1-.029-.21-.1-.295-.08a3.722,3.722,0,0,0-.559.235c-.25.115-.5.235-.746.353l-.085-.116.8-.945c-.444-.321-.631-.169-1.437,1.142a4.564,4.564,0,0,0-.594-.3,2.5,2.5,0,0,0-.658-.121c-.234-.012-.439.057-.444.368.385.258.983-.075,1.24.47-.42.215-.957.215-1.109.759.376.371.6-.273.932-.082-.69,1.228-.69,1.228-.328,1.538.36-.34.346-.963.9-1.259v2.6a4.237,4.237,0,0,1-2.209.019c0-1.005-.007-2.015,0-3.026.007-.833.042-1.666.044-2.5,0-.558-.119-.667-.682-.657-.269.006-.537.06-.806.075a3.011,3.011,0,0,1-1.334-.031c-.028-.7-.064-1.37-.081-2.045-.022-.878-.038-1.757-.042-2.635a6.331,6.331,0,0,0-.132-2.623,1.428,1.428,0,0,1-.012-.536q.012-1.656.025-3.312c0-.371.022-.757-.522-.743,0-.522.04-1.021-.483-1.279a.688.688,0,0,1-.386-.836c.051-.313.073-.679-.27-.835s-.344-.425-.348-.721c0-.373-.019-.745-.029-1.109-1.027-.065-1.142.042-1.08.918.012.18.043.359.038.539,0,.1-.03.253-.1.3a.8.8,0,0,0-.314.9.738.738,0,0,1-.367.8,1.047,1.047,0,0,0-.556,1.292c-.569-.022-.617.351-.6.729.053,1.169.1,2.339.2,3.5a2.44,2.44,0,0,1-.166,1.313.63.63,0,0,0-.036.494c.483.827.2,1.708.292,2.57a1.941,1.941,0,0,1-1.4-.357c-.517-.318-1.009-.678-1.564-1.057-.152.161-.308.349-.489.507-.09.077-.275.171-.336.132-.346-.224-.541.039-.774.2l-1.174.792c0-.388,0-.6,0-.815.013-.721.007-1.443.051-2.162.033-.552-.067-.982-.648-1.071l-.34-1.213.433-.714c-.7-.748-.7-.748-.854-2.046-.006-.044-.014-.12-.034-.124-.11-.026-.249-.08-.329-.036a.351.351,0,0,0-.11.3c.1.638-.36,1.034-.673,1.464-.406.556-.446.526.014,1.023.059.065.109.138.167.213-.142.319-.27.628-.418.927-.044.09-.134.2-.219.22-.374.073-.358.349-.363.623-.011.563-.032,1.126-.029,1.689q.015,2.6.045,5.194c.021,1.688.054,3.376.081,5.064,0,.068.017.153-.016.2a2.48,2.48,0,0,1-.309.279c-.028-.258-.058-.409-.058-.56q0-2.158.008-4.318c0-.86-.106-.964-.985-.916-.4.021-.8.063-1.274.1l-.073-1.516.878.814c.245-.61-.3-.8-.4-1.189.239-.028.457-.045.672-.081s.533.035.463-.453h-1.139c.264-.463.934-.312,1-.894-.508-.207-.835.291-1.288.292-.046-.524.44-.711.657-1.1-.1-.067-.2-.181-.272-.165-.568.126-.682.7-.988,1.083a2.277,2.277,0,0,0-1.327-.623c0,.6.7.525.814.921-.363,0-.7-.018-1.028.011-.1.009-.191.147-.286.227a1.042,1.042,0,0,0,.282.215,2.6,2.6,0,0,0,.536.044c-.4.273-.908.312-.931.871.484.2.721-.507,1.182-.276-.2.346-.611.635-.346,1.114.388.076.322-.26.436-.419.141-.2.263-.413.57-.429l.1,1.536a1.2,1.2,0,0,1-1.5-.368,2.07,2.07,0,0,0-1.389-.751,4.2,4.2,0,0,0-2.071.11,3.069,3.069,0,0,0-1.162.767c-.181.188-.147.58-.213.88-.018.083-.05.163-.078.25-.337,0-.65-.012-.962,0a.473.473,0,0,0-.495.457c-.027.287.013.545.355.633.083.022.162.061.305.116-.055.854-.109,1.7-.167,2.556-.016.224-.118.328-.412.2l-.184-2.5c-.581-.136-1.127.156-1.67-.057-.133-.053-.367.15-.566.241-.489-.4-1.092-.222-1.167.388a7.666,7.666,0,0,0,.005,1.212c.014.4.047.8.074,1.242h-.6c0-.307,0-.574,0-.842.007-.923.02-1.847.023-2.771,0-.742-.024-.781-.747-.77-1.577.024-3.153.064-4.729.1a3.469,3.469,0,0,0-.442.072c-.026.278-.07.541-.073.805-.029,2.23-.037,4.46-.078,6.69-.023,1.3-.1,2.6-.147,3.922H94.28c-.022-.286-.059-.55-.06-.815,0-1.013,0-2.026.016-3.039.01-.68-.246-.91-.912-.75a4.787,4.787,0,0,0-.649.265,3.388,3.388,0,0,0-.119-.958,2.543,2.543,0,0,1-.17-.975.636.636,0,0,0-.193-.468c-.33-.18-.326-.462-.323-.752.01-.789.039-1.577.045-2.365,0-.273.079-.591-.249-.758-.337.113-.3.381-.318.621-.049.877-.088,1.754-.149,2.63a.9.9,0,0,1-.169.549.883.883,0,0,0-.237.738,1.776,1.776,0,0,1-.02.468c-.1.356-.22.7-.36,1.139a1.238,1.238,0,0,1-.455-.01.572.572,0,0,0-.775.337,1.642,1.642,0,0,0-.153.637c-.021.518,0,1.037-.009,1.555-.017.758-.051,1.517-.08,2.335l-.73-.034L88.4,56.18c.417-.189.892.38,1.191-.264a2.97,2.97,0,0,0-.4-.152q-2.272-.507-4.548-1a11.325,11.325,0,0,0-2.695-.5,10.867,10.867,0,0,0-2.666.705c-1.548.48-3.089.98-4.629,1.485-.209.069-.509.072-.533.424.334.3.647-.083,1.051.016,0,1.941.008,3.9-.007,5.832H73.181c0-.207-.008-.341,0-.473.087-1.258.174-2.515.268-3.773.055-.74.139-1.479.174-2.22a.965.965,0,0,0-.164-.692c-.328-.268-.294-.551-.261-.9.058-.616-.129-.8-.779-.812-.743-.017-1.487-.012-2.23-.03-.45-.012-.9-.074-1.348-.071-.517,0-.612.109-.711.614-.073.37-.15.739-.235,1.158l-.883-.047c.051-.61.1-1.124.135-1.64a8.135,8.135,0,0,0,.006-1.147c-.032-.356-.227-.448-.749-.523a.43.43,0,0,0-.544.359,1.949,1.949,0,0,1-.187.355l-.156.02c.147-.443.017-.7-.381-.819s-.572.1-.67.425c-.573-.247-.572-.246-.858.161-.063.089-.118.213-.206.25-.337.141-.3.4-.26.679.046.3.081.6.128.964-.4.033-.713.072-1.024.081-.427.012-.856-.007-1.284,0-.274.007-.6.04-.677.339-.132.485-.48.452-.845.463-.426.011-.85.047-1.276.072-.143.008-.286.014-.376.018-.058-.314-.028-.635-.174-.805s-.468-.187-.757-.286c0-.252.011-.521,0-.789a7.679,7.679,0,0,0-.082-.872c-.13-.765-.3-.913-1.058-.934-.361-.01-.721-.01-1.082-.008-1.192.009-1.293.12-1.3,1.328,0,.4-.037.791-.059,1.242H51.473c.015-.3.041-.588.041-.873,0-.479-.172-.673-.643-.667-.4.006-.807.067-1.211.1l-.877.078c0-.285,0-.505,0-.724a3.29,3.29,0,0,0-.029-.6.544.544,0,0,0-.536-.433c-.278-.027-.4.142-.467.387-.032.124-.081.243-.109.324a3.377,3.377,0,0,0-.913.016c-.375.115-.262.522-.356.809-.032.1-.194.155-.354.273-.108-.5-.035-1.009-.633-1.081-.753-.091-.8.542-.967.97-.259-.112-.495-.307-.679-.267s-.326.315-.549.555c-.055-.094-.1-.171-.147-.249-.193-.334-.422-.522-.819-.26-.071.048-.236-.006-.339-.054a.436.436,0,0,0-.654.264,2.9,2.9,0,0,0-.114.922c0,.516.068,1.033.057,1.549-.031,1.418-.085,2.836-.138,4.254-.032.851-.079,1.7-.12,2.587h-2l-.108-2.844Zm-4.505,2.933V60.3c.274-.039.452.175.634.35.161.155.288.344.44.509.136.147.288.219.48-.008A4.787,4.787,0,0,0,34.862,59.7c.272.023.547.029.816.072a.774.774,0,0,0,.835-.251,1.119,1.119,0,0,1,.983-.369c-.226.357-.454.683-.636,1.033-.051.1.038.268.063.405a1.413,1.413,0,0,0,.341-.222c.323-.388.626-.791.936-1.188l.15.053v3.075Zm116.065-4.63a.882.882,0,0,1-.182.48c-.3.444-.625.874-.993,1.382l-1.193-.164a11.292,11.292,0,0,1,2.219-3.511C150.458,56.491,150.526,57.082,150.552,57.676Zm-114.231.211a1.483,1.483,0,0,1,1.623.65c-.218.045-.4.075-.58.12-.258.066-.589.066-.758.229-.549.531-1.18.386-1.91.323A2.6,2.6,0,0,1,36.321,57.887Zm102.834-2.966c.221.575.438,1.152.687,1.811a2.488,2.488,0,0,1-1-.515l.135-1.456C139.094,54.865,139.141,54.886,139.155,54.921ZM91.13,57.389c.042-.4.1-.752.11-1.108a.361.361,0,0,1,.36-.4c.219-.019.293.137.312.347.034.363.1.723.145,1.09C91.751,57.026,91.4,56.976,91.13,57.389Zm59.719,2.244h-.9l.7-1.088Zm-8.308-1.8.219-.612.1-.006.21.853Zm-39.837.137c.03-.913-.116-1.028-1-.869a.468.468,0,0,0-.453.547c.016.36.016.721.048,1.079.04.449.131.521.6.539.667.025.781-.083.8-.756,0-.113,0-.225,0-.256C102.7,58.1,102.7,58.035,102.7,57.968Zm-.921-.381.417-.049c0,.37.021.7-.012,1.018-.01.1-.163.188-.25.281l-.155-.1Zm20.578-9.506a.76.76,0,0,0-.713.673.823.823,0,0,0,.7.848.756.756,0,0,0,.756-.705A.838.838,0,0,0,122.361,48.081Zm.224.8c.006.07-.117.149-.182.224a1.369,1.369,0,0,1-.237-.319c-.016-.041.121-.142.229-.261C122.482,48.673,122.578,48.772,122.585,48.878Zm-3.868-3.821a.641.641,0,0,1-1.279.088.71.71,0,0,1,.712-.727A.649.649,0,0,1,118.717,45.057Zm7.684-2.319a7.854,7.854,0,0,1-.157-2.867l.2-.042c.063.114.17.224.182.344C126.784,41.785,126.745,42.433,126.4,42.738Zm1.337-2.9c.146.2.258.287.26.373.013.751.008,1.5.008,2.255l-.153.067c-.091-.087-.228-.159-.265-.265a1.559,1.559,0,0,1-.061-.529c.008-.492.028-.984.056-1.475A2.057,2.057,0,0,1,127.738,39.841Zm-25.99,17.023c-.066-.034-.388-.117-.394-.217-.019-.342.3-.218.5-.247a2.735,2.735,0,0,1,.6-.044.3.3,0,0,1,.217.2.294.294,0,0,1-.173.229A5.6,5.6,0,0,1,101.748,56.864Zm25.367-18.852-.315.274c-.083-.115-.212-.223-.232-.348-.012-.077.145-.179.225-.27Zm.935-.056-.259.326c-.083-.082-.226-.159-.233-.247s.107-.207.169-.31Zm.653-.216a.865.865,0,0,1,.118.323c-.005.077-.125.147-.194.22a1.238,1.238,0,0,1-.2-.345c-.019-.085.07-.193.111-.291Z" fill="#d38e30"/>
        </g>
      </g>
      <g id="Grupo_716" data-name="Grupo 716" transform="translate(16277 -13103.205)">
        <g id="Grupo_708" data-name="Grupo 708">
          <path id="Trazado_47594" data-name="Trazado 47594" d="M151.973,66.322a61.471,61.471,0,0,0-120.516,0Z" fill="none" stroke="#d38e30" stroke-miterlimit="10" stroke-width="1"/>
          <path id="Trazado_47595" data-name="Trazado 47595" d="M32.146,93.637a61.477,61.477,0,0,0,119.138,0Z" fill="none" stroke="#d38e30" stroke-miterlimit="10" stroke-width="1"/>
        </g>
      </g>
      <g id="Grupo_717" data-name="Grupo 717" transform="translate(16277 -13103.205)">
        <g id="Grupo_710" data-name="Grupo 710" clip-path="url(#clip-path-2)">
          <path id="Trazado_47596" data-name="Trazado 47596" d="M32.6,116.93l.189.284-.2.278c-2.456,3.494-5.558,7.22-11.315,7.22-6.168,0-9.406-4.019-12.31-8.268L9,117.85l.013-.017.4.549c2.38,3.273,5.873,7.03,11.805,7.03,5.77,0,9.061-3.551,11.519-7.024l.4-.559.422.617c2.38,3.273,5.873,7.03,11.806,7.03,5.77,0,9.061-3.551,11.519-7.025l.382-.54.343.471c2.38,3.273,5.873,7.03,11.806,7.03,5.77,0,9.061-3.551,11.519-7.024l.395-.559.422.617c2.38,3.273,5.873,7.03,11.805,7.03,5.77,0,9.061-3.551,11.519-7.025l.392-.554.376.567c2.38,3.272,5.873,7.029,11.806,7.029,5.77,0,9.061-3.551,11.519-7.024l.4-.558.422.616c2.38,3.273,5.873,7.03,11.805,7.03,5.77,0,9.061-3.551,11.519-7.024l.383-.541.343.472c2.38,3.272,5.873,7.029,11.805,7.029,5.77,0,9.061-3.551,11.519-7.024l.395-.558.422.616c2.38,3.273,5.873,7.03,11.806,7.03,5.77,0,9.061-3.551,11.519-7.024l.4-.559-.014-1.3c-.3-.438-.589-.878-.88-1.316-2.932-4.415-5.7-8.586-11.02-8.586-4.5,0-7.312,2.783-10.158,6.961l-.4.59-.415-.581c-.139-.195-.264-.362-.389-.529s-.259-.345-.4-.545l-.208-.291.21-.29c2.505-3.465,6.106-7.441,11.764-7.441,5.71,0,8.944,3.979,11.859,8.225l-.011-1.071-.386-.548c-2.547-3.612-5.9-7.306-11.462-7.306-5.849,0-9.473,3.909-11.977,7.314l-.333.453-.37-.525c-2.547-3.612-5.9-7.3-11.462-7.3-5.848,0-9.472,3.908-11.976,7.313l-.333.452-.279-.4c-2.546-3.612-5.9-7.306-11.462-7.306-5.848,0-9.472,3.909-11.976,7.314l-.333.453-.37-.525c-2.547-3.612-5.9-7.3-11.462-7.3-5.849,0-9.473,3.908-11.977,7.313l-.325.442-.329-.467c-2.547-3.613-5.9-7.306-11.462-7.306-5.848,0-9.472,3.909-11.976,7.314l-.333.453-.371-.525c-2.546-3.613-5.9-7.306-11.461-7.306-5.849,0-9.473,3.909-11.977,7.314l-.332.452-.279-.4c-2.547-3.613-5.9-7.306-11.462-7.306-5.849,0-9.473,3.909-11.977,7.314l-.333.453-.37-.525c-2.547-3.613-5.9-7.306-11.462-7.306-5.848,0-9.473,3.909-11.976,7.314l-.4.538.024.952q.5.711.991,1.428c3.024,4.4,5.88,8.554,11.414,8.554,4.4,0,7.015-2.534,9.819-6.622l.416-.608.409.613c.109.163.218.313.327.462S32.48,116.754,32.6,116.93Zm-3.682-5.174.9,1.195a18.706,18.706,0,0,1,1.046,1.568l.162.271-.175.262c-.336.5-.684,1.027-1.033,1.492l-.9,1.2Zm-3.391-3.271.791.575a11.555,11.555,0,0,1,1.773,1.652l.128.142v7.689l-.146.145a14.753,14.753,0,0,1-1.755,1.577l-.791.575Zm-3.956-1.137.531.035a7.438,7.438,0,0,1,2.419.6l.307.128v13.041l-.307.128a7.436,7.436,0,0,1-2.419.6l-.531.036Zm-3.957.766.307-.128a7.945,7.945,0,0,1,2.417-.6l.533-.037v14.521l-.533-.038a7.842,7.842,0,0,1-2.417-.546l-.307-.128ZM13.655,111.3l.133-.144A16.219,16.219,0,0,1,16.124,109l.788-.563v12.449l-.788-.563a15.53,15.53,0,0,1-2.337-2.045l-.132-.144Zm-2.531,3.417.184-.276c.062-.092.123-.188.186-.287a7.913,7.913,0,0,1,.581-.83l.881-1.056v5.167l-.913-1.368c-.111-.167-.237-.348-.362-.529s-.258-.373-.373-.545Zm170.59,2.864-.912-1.369c-.112-.167-.237-.348-.363-.529s-.257-.372-.372-.544l-.184-.277.184-.276c.061-.092.123-.188.185-.286a7.867,7.867,0,0,1,.582-.83l.88-1.057Zm3.957,3.449-.788-.563a15.426,15.426,0,0,1-2.337-2.045l-.132-.143v-6.834l.133-.143a16.115,16.115,0,0,1,2.336-2.158l.788-.562Zm3.956.98-.534-.038a7.835,7.835,0,0,1-2.416-.546l-.307-.128V108.259l.307-.128a7.918,7.918,0,0,1,2.417-.6l.533-.038Zm3.956-.712-.306.128a7.436,7.436,0,0,1-2.419.6l-.532.036V107.493l.532.036a7.436,7.436,0,0,1,2.419.6l.306.128Zm3.392-2.612-.146.146a14.823,14.823,0,0,1-1.755,1.576l-.791.575V108.63l.791.575a11.554,11.554,0,0,1,1.773,1.652l.128.142Zm2.8-3.753-.175.262c-.337.505-.685,1.027-1.034,1.492l-.9,1.2V111.9l.9,1.195a18.226,18.226,0,0,1,1.046,1.568Zm-22.055,1.655v0q-.438-.65-.868-1.3c-2.932-4.415-5.7-8.586-11.021-8.586-4.5,0-7.312,2.783-10.157,6.961l-.4.59-.415-.581c-.139-.195-.265-.362-.39-.529s-.258-.344-.4-.545l-.208-.291.21-.29c2.505-3.465,6.106-7.441,11.764-7.441s8.884,3.907,11.778,8.108v0c.333.474.679,1.009,1.006,1.485,3.024,4.4,5.881,8.554,11.414,8.554,4.395,0,7.016-2.534,9.819-6.622l.417-.608.409.613c.108.163.218.313.326.463s.235.322.352.5l.189.284-.2.279c-2.456,3.493-5.559,7.219-11.316,7.219C183.866,124.857,180.627,120.838,177.724,116.59Zm-21.8-2.066c.062-.092.123-.188.186-.286a7.811,7.811,0,0,1,.581-.83l.881-1.057v5.168l-.913-1.369c-.111-.167-.237-.348-.362-.529s-.258-.372-.372-.544l-.185-.277Zm2.48-3.284a16.225,16.225,0,0,1,2.336-2.158l.788-.562v12.448l-.788-.563a15.474,15.474,0,0,1-2.337-2.045l-.132-.143v-6.834Zm4.13-3.173a7.948,7.948,0,0,1,2.417-.6l.533-.038v14.521l-.533-.038a7.813,7.813,0,0,1-2.417-.546l-.306-.128V108.195Zm4.181-.6a7.436,7.436,0,0,1,2.419.6l.307.128v13.041l-.307.128a7.436,7.436,0,0,1-2.419.6l-.531.036V107.429Zm4.216,1.676a11.471,11.471,0,0,1,1.773,1.653l.128.141v7.689l-.146.146a14.657,14.657,0,0,1-1.755,1.576l-.791.575V108.566Zm3.5,3.891a18.568,18.568,0,0,1,1.046,1.569l.162.27-.175.262c-.336.5-.684,1.027-1.033,1.492l-.9,1.2v-5.984Zm-20.743,3.641c-.3-.438-.589-.878-.88-1.316-2.932-4.415-5.7-8.586-11.021-8.586-4.5,0-7.311,2.783-10.157,6.961l-.4.59-.415-.581c-.139-.195-.264-.362-.39-.529s-.258-.345-.4-.545l-.208-.291.209-.29c2.505-3.465,6.106-7.441,11.764-7.441,5.69,0,8.92,3.951,11.827,8.179.29.423.582.876.866,1.289,3.024,4.4,5.88,8.554,11.414,8.554,4.4,0,7.015-2.534,9.819-6.622l.416-.608.409.613c.109.163.218.313.327.463s.234.322.351.5l.189.284-.2.279c-2.456,3.493-5.558,7.22-11.315,7.22-6.1,0-9.329-3.927-12.206-8.119Zm-21.81-2.085c.061-.092.122-.188.185-.286a7.707,7.707,0,0,1,.581-.83l.881-1.057v5.168l-.913-1.369c-.111-.167-.237-.348-.362-.529s-.258-.372-.372-.544l-.184-.277Zm2.479-3.284a16.176,16.176,0,0,1,2.337-2.158l.787-.562v12.448l-.787-.563a15.434,15.434,0,0,1-2.338-2.045l-.132-.143v-6.834Zm4.13-3.173a7.918,7.918,0,0,1,2.417-.6l.533-.038v14.521l-.533-.038a7.848,7.848,0,0,1-2.417-.546l-.306-.128V108.259Zm4.181-.6a7.436,7.436,0,0,1,2.419.6l.307.128V121.3l-.307.128a7.436,7.436,0,0,1-2.419.6l-.531.036V107.493Zm4.216,1.676a11.509,11.509,0,0,1,1.773,1.652l.128.142v7.689l-.146.146a14.744,14.744,0,0,1-1.755,1.576l-.791.575V108.63Zm3.5,3.891a18.46,18.46,0,0,1,1.046,1.568l.162.271-.175.262c-.336.505-.684,1.027-1.033,1.492l-.9,1.2V111.9Zm-20.846,3.494v0q-.438-.65-.869-1.3c-2.932-4.415-5.7-8.586-11.02-8.586-4.5,0-7.312,2.783-10.158,6.961l-.4.59-.415-.581c-.139-.195-.264-.362-.389-.529s-.259-.344-.4-.545l-.208-.291.21-.29c2.505-3.465,6.106-7.441,11.764-7.441s8.883,3.907,11.777,8.108v0c.334.474.679,1.009,1.007,1.485,3.024,4.4,5.88,8.554,11.414,8.554,4.4,0,7.015-2.534,9.819-6.622l.417-.608.408.613c.109.163.218.313.327.463s.234.322.352.5l.188.284-.2.279c-2.456,3.493-5.558,7.219-11.315,7.219C135.675,124.857,132.436,120.838,129.533,116.59Zm-21.8-2.066c.061-.092.123-.188.185-.286a7.824,7.824,0,0,1,.582-.83l.88-1.057v5.168l-.912-1.369c-.112-.167-.237-.348-.363-.529s-.257-.372-.372-.544l-.184-.277Zm2.48-3.284a16.172,16.172,0,0,1,2.336-2.158l.788-.562v12.448l-.788-.563a15.426,15.426,0,0,1-2.337-2.045l-.132-.143v-6.834Zm4.13-3.173a7.94,7.94,0,0,1,2.416-.6l.534-.038v14.521l-.534-.038a7.807,7.807,0,0,1-2.416-.546l-.307-.128V108.195Zm4.181-.6a7.436,7.436,0,0,1,2.419.6l.306.128v13.041l-.306.128a7.436,7.436,0,0,1-2.419.6l-.532.036V107.429Zm4.216,1.676a11.516,11.516,0,0,1,1.773,1.653l.127.141v7.689l-.145.146a14.735,14.735,0,0,1-1.755,1.576l-.791.575V108.566Zm3.5,3.891a18.1,18.1,0,0,1,1.046,1.569l.163.27-.175.262c-.337.5-.685,1.027-1.034,1.492l-.9,1.2v-5.984Zm-20.846,3.494v0c-.276-.413-.547-.844-.819-1.255-2.932-4.416-5.7-8.586-11.021-8.586-4.5,0-7.312,2.783-10.157,6.96l-.4.59-.415-.581c-.139-.195-.265-.361-.39-.528s-.258-.345-.4-.545l-.208-.292.21-.29c2.5-3.464,6.106-7.441,11.764-7.441,5.711,0,8.944,3.98,11.859,8.226h0c.295.433.585.9.876,1.325,3.024,4.4,5.881,8.554,11.414,8.554,4.4,0,7.016-2.534,9.819-6.622l.417-.608.409.613c.108.163.217.313.326.463s.235.322.352.5l.189.284-.2.279c-2.456,3.493-5.559,7.22-11.316,7.22C111.533,124.794,108.294,120.774,105.391,116.526Zm-21.75-2.019c.062-.092.123-.188.186-.287a7.912,7.912,0,0,1,.581-.83l.881-1.056V117.5l-.913-1.368c-.111-.167-.237-.348-.362-.529s-.258-.373-.372-.545l-.185-.276Zm2.48-3.285a16.218,16.218,0,0,1,2.336-2.157l.788-.563v12.449l-.788-.563a15.48,15.48,0,0,1-2.337-2.046l-.132-.143v-6.833Zm4.13-3.172a7.916,7.916,0,0,1,2.417-.6l.533-.038v14.522l-.533-.038a7.813,7.813,0,0,1-2.417-.547l-.306-.127V108.177Zm4.181-.6a7.439,7.439,0,0,1,2.419.6l.307.127v13.042l-.307.127a7.438,7.438,0,0,1-2.419.6l-.531.035V107.412Zm4.216,1.677a11.508,11.508,0,0,1,1.773,1.652l.128.142v7.688l-.146.146a14.753,14.753,0,0,1-1.755,1.577l-.791.575V108.549Zm3.5,3.891a18.7,18.7,0,0,1,1.046,1.568l.162.271-.175.262c-.336.505-.684,1.026-1.033,1.492l-.9,1.2V111.82ZM81.3,116.508v0q-.438-.648-.869-1.3c-2.932-4.415-5.7-8.586-11.02-8.586-4.5,0-7.312,2.783-10.158,6.96l-.4.59-.415-.581c-.139-.194-.264-.361-.389-.528s-.259-.345-.4-.545l-.208-.292.21-.29c2.505-3.464,6.106-7.44,11.764-7.44s8.883,3.906,11.777,8.107v0c.334.475.679,1.009,1.007,1.486,3.024,4.4,5.88,8.554,11.414,8.554,4.395,0,7.015-2.534,9.819-6.623l.416-.607.409.613c.109.163.218.313.327.462s.234.323.351.5l.189.283-.2.279c-2.456,3.493-5.558,7.22-11.315,7.22C87.44,124.776,84.2,120.757,81.3,116.508Zm-21.8-2.065c.061-.092.123-.188.185-.287a8.065,8.065,0,0,1,.581-.83l.881-1.056v5.167l-.912-1.368c-.112-.167-.237-.348-.363-.529s-.258-.373-.372-.545l-.184-.276Zm2.48-3.285A16.167,16.167,0,0,1,64.316,109l.787-.563v12.449l-.787-.563a15.432,15.432,0,0,1-2.337-2.045l-.132-.144V111.3Zm4.129-3.172a7.953,7.953,0,0,1,2.417-.6l.534-.037v14.521l-.534-.038a7.848,7.848,0,0,1-2.417-.546l-.306-.128V108.114Zm4.181-.6a7.444,7.444,0,0,1,2.42.6l.306.128v13.041l-.306.128a7.441,7.441,0,0,1-2.42.6l-.531.036V107.348Zm4.217,1.677a11.507,11.507,0,0,1,1.772,1.652l.128.142v7.689l-.146.145a14.823,14.823,0,0,1-1.754,1.577l-.791.575V108.485Zm3.5,3.891a18.228,18.228,0,0,1,1.046,1.568l.162.271-.174.262c-.337.5-.685,1.027-1.034,1.492l-.9,1.2v-5.984Zm-20.743,3.64c-.3-.437-.589-.877-.88-1.315-2.932-4.416-5.7-8.586-11.02-8.586-4.5,0-7.312,2.783-10.158,6.96l-.4.59-.415-.581c-.139-.195-.264-.361-.389-.528s-.259-.345-.4-.545l-.208-.292.21-.29c2.505-3.464,6.106-7.441,11.764-7.441,5.689,0,8.92,3.951,11.827,8.179.29.424.581.877.865,1.29,3.024,4.4,5.88,8.554,11.414,8.554,4.395,0,7.016-2.534,9.819-6.622l.417-.608.408.613c.109.163.218.313.327.462s.235.323.352.5l.189.284-.2.278c-2.456,3.494-5.559,7.22-11.316,7.22-6.1,0-9.329-3.926-12.206-8.118Zm-21.81-2.084c.061-.092.123-.188.185-.287a7.927,7.927,0,0,1,.582-.83l.88-1.056V117.5l-.912-1.368c-.112-.167-.237-.348-.363-.529s-.257-.373-.372-.545l-.184-.276Zm2.48-3.285a16.166,16.166,0,0,1,2.336-2.157l.788-.563v12.449l-.788-.563a15.431,15.431,0,0,1-2.337-2.046L37.8,118.2v-6.833Zm4.13-3.172a7.909,7.909,0,0,1,2.416-.6l.534-.038v14.522l-.534-.038a7.807,7.807,0,0,1-2.416-.547l-.307-.127V108.177Zm4.181-.6a7.439,7.439,0,0,1,2.419.6l.306.127v13.042l-.306.127a7.438,7.438,0,0,1-2.419.6l-.532.035V107.412Zm4.216,1.677a11.554,11.554,0,0,1,1.773,1.652l.127.142v7.688l-.145.146a14.831,14.831,0,0,1-1.755,1.577l-.791.575V108.549Zm3.5,3.891A18.226,18.226,0,0,1,55,114.583l.163.271-.175.262c-.337.505-.685,1.026-1.034,1.492l-.9,1.2V111.82Zm-21.714,2.2c-2.932-4.415-5.7-8.586-11.021-8.586-4.5,0-7.312,2.783-10.157,6.96l-.4.59-.415-.581c-.139-.194-.265-.361-.39-.528s-.258-.345-.4-.545l-.208-.292.21-.29c2.5-3.464,6.106-7.44,11.764-7.44S30.1,108.406,33,112.607v0c.333.475.679,1.009,1.006,1.486,3.024,4.4,5.881,8.554,11.414,8.554,4.4,0,7.016-2.534,9.819-6.623l.417-.607.409.613c.108.163.217.313.326.462s.235.323.352.5l.189.283-.2.279c-2.456,3.493-5.559,7.22-11.316,7.22-6.167,0-9.406-4.019-12.309-8.268v0Q32.669,115.862,32.239,115.212Z" fill="#d38e30"/>
        </g>
      </g>
    </g>
  </g>
</svg>
