<svg id="layer1" xmlns="http://www.w3.org/2000/svg" width="56.927" height="42.875" viewBox="0 0 56.927 42.875">
  <g id="g3934">
    <g id="g236" transform="translate(16.664)">
      <path id="path238" d="M502.658,145.254a3.227,3.227,0,0,0-2.834,4.762c-.319.159-1.067.534-2.113,1.077a2.4,2.4,0,1,0-4.223,2.262c-.538.3-1.1.61-1.669.932a1.883,1.883,0,0,0-3.459,1.033,1.867,1.867,0,0,0,.206.856q-.889.529-1.789,1.084a1.377,1.377,0,0,0-2.264,1.052,1.4,1.4,0,0,0,.048.353,64.55,64.55,0,0,0-6.581,4.8,47.488,47.488,0,0,0-9.855-14.562l-.013-.013c-.523-.515-.956-.289-.355.354l.023.024c3.793,4.082,6.771,9.986,8.8,15.371-7.7,6.577-16.192,19.319-6.886,23.324,1.355.584,1.972-.531,1.39-.876-.106-.061-4.249-2.3-1.615-9.185H476.1a.643.643,0,1,0,0-1.286H470.02a25.844,25.844,0,0,1,1.312-2.434H476.1a.644.644,0,1,0,0-1.287h-3.95c.493-.736,1.045-1.507,1.667-2.316H476.1a.643.643,0,1,0,0-1.286h-1.262c.72-.88,1.515-1.8,2.395-2.762a.164.164,0,0,0,.022-.025c1.749,5.064,2.594,9.384,2.409,10.825a1.5,1.5,0,0,1-.81,1.207c-.326.154-.46.6.051.756,1.629.479,2.633-1.137,2.813-2.437s-.709-6.1-3.061-11.817A59.659,59.659,0,0,1,485.2,159.5a1.375,1.375,0,0,0,2.063-1.191,1.306,1.306,0,0,0-.027-.271q.923-.644,1.832-1.247a1.881,1.881,0,0,0,3-1.925c.6-.377,1.189-.732,1.751-1.069a2.4,2.4,0,0,0,4.036-2.327c1.024-.57,1.772-.974,2.136-1.18a3.222,3.222,0,1,0,2.664-5.038" transform="translate(-465.617 -145.254)" fill="#fff"/>
    </g>
    <g id="g240" transform="translate(17.042 16.36)">
      <path id="path242" d="M465.964,169.71c.12-.26.22-.542.342-.884a8.762,8.762,0,0,0,.34-1.183l1.225-5.3c.1-.543.18-.943.2-1.185a3.1,3.1,0,0,0,.039-.641v-.241h2.769l-1.666,7.366q-.18.781-.24,1.2a4.2,4.2,0,0,0-.061.864Z" transform="translate(-465.964 -160.277)" fill="#fff"/>
    </g>
    <g id="g244" transform="translate(0 16.359)">
      <path id="path246" d="M459.807,162.344a1.583,1.583,0,0,0,.082-.481.625.625,0,0,0-.04-.2.678.678,0,0,0-.563-.179H455.03a.839.839,0,0,0-.6.179,1.034,1.034,0,0,0-.281.684l-.5,2.166H459.3Zm.642,7.366h-8.208a2.06,2.06,0,0,1-1.687-.562,1.522,1.522,0,0,1-.24-.9,4.312,4.312,0,0,1,.139-1.024l1.025-4.455a3.617,3.617,0,0,1,.983-1.928,2.908,2.908,0,0,1,1.926-.562h6.06a2.02,2.02,0,0,1,1.705.562,1.417,1.417,0,0,1,.262.925,3.879,3.879,0,0,1-.142,1l-.662,2.951h-8.249l-.441,1.926a2.557,2.557,0,0,0-.059.461c0,.1,0,.181.04.22.059.121.24.181.521.181h6.02a7.336,7.336,0,0,0,1.567-.159l-.563,1.365Z" transform="translate(-450.315 -160.276)" fill="#fff"/>
    </g>
    <g id="g248" transform="translate(12.179 11.393)">
      <path id="path250" d="M461.5,170.116c.129-.292.235-.607.364-.992a9.8,9.8,0,0,0,.36-1.327l2.109-9.762c.126-.609.212-1.059.254-1.329.022-.248.044-.585.044-.99h2.938l-2.62,12.08c-.126.586-.212,1.037-.255,1.353a5.076,5.076,0,0,0-.063.967Z" transform="translate(-461.499 -155.716)" fill="#fff"/>
    </g>
    <g id="g252" transform="translate(33.056 16.36)">
      <path id="path254" d="M480.669,169.71c.119-.26.219-.542.34-.884a8.592,8.592,0,0,0,.341-1.183l1.225-5.3c.1-.543.18-.943.2-1.185a2.937,2.937,0,0,0,.041-.641v-.241h2.768l-1.664,7.366q-.181.781-.241,1.2a4.2,4.2,0,0,0-.061.864Z" transform="translate(-480.669 -160.277)" fill="#fff"/>
    </g>
    <g id="g256" transform="translate(38.476 16.36)">
      <path id="path258" d="M493.211,161.863c-.3-.02-.6-.041-.943-.041h-1.345a.971.971,0,0,0-.6.161,1.078,1.078,0,0,0-.341.623l-1.125,5.038a7.693,7.693,0,0,0-.281,1.845v.222h-2.929c.119-.3.24-.584.32-.864.081-.26.182-.663.322-1.2l1.2-5.3c.141-.523.2-.923.261-1.223a5.928,5.928,0,0,0,.04-.844h2.467l-.1.963a1.723,1.723,0,0,1,.622-.722,1.984,1.984,0,0,1,1.064-.241h2.409l.58,1.042a2.279,2.279,0,0,0-.341.382c-.139.18-.24.26-.3.26-.362-.038-.685-.081-.984-.1" transform="translate(-485.646 -160.277)" fill="#fff"/>
    </g>
    <g id="g260" transform="translate(19.707 11.702)">
      <path id="path262" d="M471.128,157.359A1.359,1.359,0,1,1,469.769,156a1.359,1.359,0,0,1,1.359,1.359" transform="translate(-468.411 -156)" fill="#fff"/>
    </g>
    <g id="g264" transform="translate(26.065 38.049)">
      <path id="path266" d="M479.934,180.193l-.2.775h-2.468c-.206,0-.325.064-.359.191l-.081.3a.356.356,0,0,0-.007.059q0,.124.278.124h1.334q.951,0,.952.638a1.059,1.059,0,0,1-.037.262l-.308,1.231a1.281,1.281,0,0,1-1.333,1.106H474.25l.19-.776h2.506c.185,0,.3-.068.329-.2l.082-.322a.292.292,0,0,0,.014-.082c0-.082-.087-.124-.264-.124h-1.531c-.509,0-.761-.185-.761-.556a1.955,1.955,0,0,1,.058-.425l.279-1.12a1.524,1.524,0,0,1,.418-.756,1.107,1.107,0,0,1,.8-.321Z" transform="translate(-474.25 -180.193)" fill="#fff"/>
    </g>
    <g id="g268" transform="translate(31.676 38.049)">
      <path id="path270" d="M483.328,181.357a1.01,1.01,0,0,0,.029-.2c0-.123-.075-.184-.228-.184h-.967l-.366,1.466h.967q.3,0,.389-.366Zm1.794-.045-.2.821a1.288,1.288,0,0,1-1.37,1.076h-1.942l-.417,1.671H479.4l1.172-4.687h3.676q.931,0,.93.688a1.849,1.849,0,0,1-.059.431" transform="translate(-479.402 -180.193)" fill="#fff"/>
    </g>
    <g id="g272" transform="translate(36.459 38.049)">
      <path id="path274" d="M487.529,182.844l-.271-1.582-1.114,1.582Zm2.234,2.036h-1.9l-.22-1.26h-2.058l-.93,1.26h-.864l3.413-4.687h1.787Z" transform="translate(-483.794 -180.193)" fill="#fff"/>
    </g>
    <g id="g276" transform="translate(43.483 38.049)">
      <path id="path278" d="M493.2,180.193l-1.172,4.687h-1.787l1.172-4.687Z" transform="translate(-490.244 -180.193)" fill="#fff"/>
    </g>
    <g id="g280" transform="translate(46.443 38.049)">
      <path id="path282" d="M499.173,180.193,498,184.88h-2.314L494.719,181h-.013l-.968,3.882h-.775l1.172-4.687h2.336l.945,3.822h.023l.958-3.822Z" transform="translate(-492.962 -180.193)" fill="#fff"/>
    </g>
  </g>
</svg>
