<svg id="Grupo_722" data-name="Grupo 722" xmlns="http://www.w3.org/2000/svg" width="105.642" height="51.81" viewBox="0 0 105.642 51.81">
  <g id="Grupo_720" data-name="Grupo 720" transform="translate(50.941 41.381)">
    <path id="Trazado_47642" data-name="Trazado 47642" d="M383.348,179.057a5.32,5.32,0,0,1-.809-.056c-.1-.017-.15-.039-.15-.117v-.023c0-.088.066-.1.127-.094a7.579,7.579,0,0,0,.832.056c.839,0,1.032-.372,1.032-.827,0-.412-.238-.555-.855-.939l-.348-.216c-.505-.311-.871-.572-.871-1.11,0-.683.649-.86,1.3-.86a7.21,7.21,0,0,1,.771.05c.111.011.149.039.149.111v.027c0,.084-.06.1-.171.089-.05-.005-.516-.045-.755-.045-.733,0-1.043.217-1.043.627,0,.393.255.594.749.893l.355.217c.654.393.976.644.976,1.154S384.42,179.057,383.348,179.057Z" transform="translate(-382.306 -174.873)" fill="#fff"/>
    <path id="Trazado_47643" data-name="Trazado 47643" d="M386.225,178.964a4.072,4.072,0,0,1-.771-.084v1.027a.1.1,0,0,1-.095.106H385.3a.1.1,0,0,1-.095-.106v-3.773c0-.066.017-.088.084-.106a5.156,5.156,0,0,1,.932-.1c.766,0,1.087.549,1.087,1.348v.366C387.312,178.514,386.946,178.964,386.225,178.964Zm.843-1.692c0-.717-.222-1.133-.843-1.133a4.991,4.991,0,0,0-.771.073v2.463a4.553,4.553,0,0,0,.771.072c.61,0,.843-.378.843-1.11Z" transform="translate(-382.048 -174.78)" fill="#fff"/>
    <path id="Trazado_47644" data-name="Trazado 47644" d="M389.847,178.858a5.056,5.056,0,0,1-.932.106c-.766,0-1.087-.55-1.087-1.348v-.344c0-.8.321-1.348,1.087-1.348a5.156,5.156,0,0,1,.932.1c.068.017.084.039.084.106v2.619C389.931,178.819,389.915,178.84,389.847,178.858Zm-.16-2.646a5.019,5.019,0,0,0-.772-.073c-.621,0-.843.416-.843,1.133v.344c0,.715.222,1.131.843,1.131a5.168,5.168,0,0,0,.772-.072Z" transform="translate(-381.815 -174.78)" fill="#fff"/>
    <path id="Trazado_47645" data-name="Trazado 47645" d="M392.593,178.964h-.056a.1.1,0,0,1-.094-.106v-1.914c0-.7-.322-.787-.694-.787h-.238c-.372,0-.694.088-.694.787v1.914a.1.1,0,0,1-.095.106h-.056a.1.1,0,0,1-.094-.106v-1.914c0-.932.554-1.02.938-1.02h.238c.382,0,.938.088.938,1.02v1.914A.1.1,0,0,1,392.593,178.964Z" transform="translate(-381.57 -174.78)" fill="#fff"/>
    <path id="Trazado_47646" data-name="Trazado 47646" d="M393.519,175.495h-.034a.105.105,0,0,1-.1-.106v-.411a.109.109,0,0,1,.1-.106h.034a.109.109,0,0,1,.106.106v.411A.106.106,0,0,1,393.519,175.495Zm0,3.562h-.034a.109.109,0,0,1-.1-.106v-2.8a.109.109,0,0,1,.1-.106h.034a.109.109,0,0,1,.106.106v2.8A.109.109,0,0,1,393.519,179.057Z" transform="translate(-381.32 -174.873)" fill="#fff"/>
    <path id="Trazado_47647" data-name="Trazado 47647" d="M395.321,178.964a4.979,4.979,0,0,1-.8-.078c-.077-.016-.121-.027-.121-.088v-.061c0-.068.054-.089.121-.078a5.607,5.607,0,0,0,.816.089c.4,0,.706-.106.706-.555,0-.227-.123-.35-.589-.6l-.355-.194c-.416-.228-.671-.411-.671-.788,0-.516.411-.682.848-.682a5.839,5.839,0,0,1,.794.049c.077.012.117.023.117.095v.045c0,.088-.033.1-.117.088a6.722,6.722,0,0,0-.771-.061c-.355,0-.627.073-.627.466,0,.244.2.389.538.577l.372.206c.461.255.7.438.7.8C396.281,178.786,395.837,178.964,395.321,178.964Z" transform="translate(-381.23 -174.78)" fill="#fff"/>
    <path id="Trazado_47648" data-name="Trazado 47648" d="M398.824,179.055h-.056a.1.1,0,0,1-.089-.106v-1.87c0-.543-.228-.849-.821-.849a2.985,2.985,0,0,0-.749.1v2.619a.1.1,0,0,1-.094.106h-.056a.1.1,0,0,1-.095-.106V175a.1.1,0,0,1,.095-.106h.056a.1.1,0,0,1,.094.106v1.11a3.256,3.256,0,0,1,.749-.1.947.947,0,0,1,1.06,1.065v1.87A.1.1,0,0,1,398.824,179.055Z" transform="translate(-381.01 -174.871)" fill="#fff"/>
    <path id="Trazado_47649" data-name="Trazado 47649" d="M403.374,179.023h-.056a.1.1,0,0,1-.095-.106v-2.58c0-.832-.255-1.243-1.031-1.243-.433,0-.9.045-1.11.066v3.756a.1.1,0,0,1-.1.106h-.05a.1.1,0,0,1-.094-.106v-3.851c0-.066.033-.094.077-.1a10.154,10.154,0,0,1,1.276-.095c.9,0,1.276.527,1.276,1.465v2.58A.1.1,0,0,1,403.374,179.023Z" transform="translate(-380.656 -174.873)" fill="#fff"/>
    <path id="Trazado_47650" data-name="Trazado 47650" d="M406.088,178.858a5.067,5.067,0,0,1-.932.106c-.766,0-1.087-.55-1.087-1.348v-.344c0-.8.321-1.348,1.087-1.348a5.168,5.168,0,0,1,.932.1c.066.017.083.039.083.106v2.619C406.171,178.819,406.154,178.84,406.088,178.858Zm-.161-2.646a4.991,4.991,0,0,0-.771-.073c-.622,0-.843.416-.843,1.133v.344c0,.715.221,1.131.843,1.131a5.139,5.139,0,0,0,.771-.072Z" transform="translate(-380.369 -174.78)" fill="#fff"/>
    <path id="Trazado_47651" data-name="Trazado 47651" d="M408.022,179a3.906,3.906,0,0,1-.421.017c-.489,0-.76-.161-.76-.711v-2.924a.1.1,0,0,1,.106-.1h.044a.1.1,0,0,1,.1.1v.622h.932c.061,0,.106.034.106.089v.049c0,.056-.045.089-.106.089h-.932v2.075c0,.428.138.494.511.494h.421c.084,0,.117.022.117.072v.039C408.138,178.96,408.122,178.992,408.022,179Z" transform="translate(-380.122 -174.837)" fill="#fff"/>
    <path id="Trazado_47652" data-name="Trazado 47652" d="M408.858,175.495h-.034a.105.105,0,0,1-.1-.106v-.411a.109.109,0,0,1,.1-.106h.034a.109.109,0,0,1,.106.106v.411A.106.106,0,0,1,408.858,175.495Zm0,3.562h-.034a.109.109,0,0,1-.1-.106v-2.8a.109.109,0,0,1,.1-.106h.034a.109.109,0,0,1,.106.106v2.8A.109.109,0,0,1,408.858,179.057Z" transform="translate(-379.955 -174.873)" fill="#fff"/>
    <path id="Trazado_47653" data-name="Trazado 47653" d="M410.9,178.964c-.76,0-1.142-.489-1.142-1.326v-.389c0-.837.382-1.325,1.142-1.325s1.143.488,1.143,1.325v.389C412.045,178.475,411.661,178.964,410.9,178.964Zm.9-1.715c0-.682-.249-1.11-.9-1.11s-.9.428-.9,1.11v.389c0,.683.249,1.11.9,1.11s.9-.427.9-1.11Z" transform="translate(-379.863 -174.78)" fill="#fff"/>
    <path id="Trazado_47654" data-name="Trazado 47654" d="M414.616,178.964h-.056a.1.1,0,0,1-.095-.106v-1.914c0-.7-.321-.787-.694-.787h-.238c-.371,0-.693.088-.693.787v1.914a.1.1,0,0,1-.095.106h-.056a.1.1,0,0,1-.095-.106v-1.914c0-.932.555-1.02.938-1.02h.238c.383,0,.939.088.939,1.02v1.914A.1.1,0,0,1,414.616,178.964Z" transform="translate(-379.61 -174.78)" fill="#fff"/>
    <path id="Trazado_47655" data-name="Trazado 47655" d="M417.3,178.858a5.078,5.078,0,0,1-.932.106c-.767,0-1.088-.55-1.088-1.348v-.344c0-.8.321-1.348,1.088-1.348a5.18,5.18,0,0,1,.932.1c.066.017.083.039.083.106v2.619C417.379,178.819,417.363,178.84,417.3,178.858Zm-.161-2.646a5.018,5.018,0,0,0-.771-.073c-.622,0-.844.416-.844,1.133v.344c0,.715.222,1.131.844,1.131a5.167,5.167,0,0,0,.771-.072Z" transform="translate(-379.372 -174.78)" fill="#fff"/>
    <path id="Trazado_47656" data-name="Trazado 47656" d="M418.248,179.055h-.056a.1.1,0,0,1-.095-.106V175a.1.1,0,0,1,.095-.106h.056a.1.1,0,0,1,.094.106v3.945A.1.1,0,0,1,418.248,179.055Z" transform="translate(-379.12 -174.871)" fill="#fff"/>
    <path id="Trazado_47657" data-name="Trazado 47657" d="M383.371,184.586a7.9,7.9,0,0,1-.832-.045c-.073-.005-.106-.039-.106-.106v-3.9a.113.113,0,0,1,.106-.1c.228-.017.549-.034.832-.034.76,0,1.526.172,1.526,1v.061a.923.923,0,0,1-.66.921.91.91,0,0,1,.682.943v.095C384.918,184.4,384.07,184.586,383.371,184.586Zm1.282-3.185c0-.676-.633-.787-1.282-.787-.244,0-.505.016-.694.022v1.626h1c.778,0,.971-.383.971-.8Zm.022,1.925c0-.427-.21-.827-.993-.827h-1v1.831c.238.017.421.034.694.034.665,0,1.3-.138,1.3-.943Z" transform="translate(-382.295 -174.381)" fill="#fff"/>
    <path id="Trazado_47658" data-name="Trazado 47658" d="M385.653,181.019h-.033a.106.106,0,0,1-.106-.106V180.5a.109.109,0,0,1,.106-.106h.033a.109.109,0,0,1,.106.106v.411A.106.106,0,0,1,385.653,181.019Zm0,3.562h-.033a.109.109,0,0,1-.106-.106v-2.8a.109.109,0,0,1,.106-.106h.033a.109.109,0,0,1,.106.106v2.8A.109.109,0,0,1,385.653,184.581Z" transform="translate(-382.02 -174.381)" fill="#fff"/>
    <path id="Trazado_47659" data-name="Trazado 47659" d="M387.7,184.488c-.76,0-1.143-.489-1.143-1.326v-.389c0-.837.383-1.325,1.143-1.325s1.142.488,1.142,1.325v.389C388.84,184,388.458,184.488,387.7,184.488Zm.9-1.715c0-.682-.249-1.11-.9-1.11s-.9.428-.9,1.11v.389c0,.683.25,1.11.9,1.11s.9-.427.9-1.11Z" transform="translate(-381.928 -174.288)" fill="#fff"/>
    <path id="Trazado_47660" data-name="Trazado 47660" d="M389.607,181.019h-.034a.106.106,0,0,1-.106-.106V180.5a.109.109,0,0,1,.106-.106h.034a.109.109,0,0,1,.1.106v.411A.105.105,0,0,1,389.607,181.019Zm0,3.562h-.034a.109.109,0,0,1-.106-.106v-2.8a.109.109,0,0,1,.106-.106h.034a.109.109,0,0,1,.1.106v2.8A.109.109,0,0,1,389.607,184.581Z" transform="translate(-381.669 -174.381)" fill="#fff"/>
    <path id="Trazado_47661" data-name="Trazado 47661" d="M392.578,184.488h-.056a.1.1,0,0,1-.095-.106v-1.914c0-.7-.321-.787-.694-.787H391.5c-.371,0-.694.088-.694.787v1.914a.1.1,0,0,1-.094.106h-.056a.1.1,0,0,1-.095-.106v-1.914c0-.932.555-1.02.938-1.02h.238c.383,0,.938.088.938,1.02v1.914A.1.1,0,0,1,392.578,184.488Z" transform="translate(-381.572 -174.288)" fill="#fff"/>
    <path id="Trazado_47662" data-name="Trazado 47662" d="M394.5,180.614h-.423c-.371,0-.516.066-.516.493v.461h.939a.092.092,0,0,1,.1.089v.049a.092.092,0,0,1-.1.089h-.939v2.68a.1.1,0,0,1-.1.106h-.039a.106.106,0,0,1-.106-.106v-3.368c0-.549.272-.71.76-.71a4,4,0,0,1,.423.016c.1.011.115.045.115.089v.039C394.612,180.591,394.579,180.614,394.5,180.614Z" transform="translate(-381.326 -174.381)" fill="#fff"/>
    <path id="Trazado_47663" data-name="Trazado 47663" d="M395.949,184.488c-.76,0-1.142-.489-1.142-1.326v-.389c0-.837.382-1.325,1.142-1.325s1.143.488,1.143,1.325v.389C397.093,184,396.71,184.488,395.949,184.488Zm.9-1.715c0-.682-.25-1.11-.9-1.11s-.9.428-.9,1.11v.389c0,.683.249,1.11.9,1.11s.9-.427.9-1.11Z" transform="translate(-381.193 -174.288)" fill="#fff"/>
    <path id="Trazado_47664" data-name="Trazado 47664" d="M398.685,181.663h-.172a1.06,1.06,0,0,0-.6.134v2.585a.1.1,0,0,1-.095.106h-.056a.1.1,0,0,1-.088-.106v-2.63a.1.1,0,0,1,.05-.089,1.405,1.405,0,0,1,.8-.216c.25,0,.283.027.283.1v.028C398.8,181.641,398.762,181.663,398.685,181.663Z" transform="translate(-380.939 -174.288)" fill="#fff"/>
    <path id="Trazado_47665" data-name="Trazado 47665" d="M402.644,184.488h-.056a.1.1,0,0,1-.094-.111v-1.914c0-.744-.411-.794-.788-.794a2.494,2.494,0,0,0-.527.078v2.635a.1.1,0,0,1-.094.106h-.056a.1.1,0,0,1-.095-.106v-2.635a2.5,2.5,0,0,0-.527-.078c-.377,0-.787.05-.787.794v1.914a.105.105,0,0,1-.095.111h-.056a.105.105,0,0,1-.095-.111v-1.914a.891.891,0,0,1,.988-1.015h.012a2.615,2.615,0,0,1,.676.117,2.7,2.7,0,0,1,.688-.117.9.9,0,0,1,1,1.015v1.914A.105.105,0,0,1,402.644,184.488Z" transform="translate(-380.787 -174.288)" fill="#fff"/>
    <path id="Trazado_47666" data-name="Trazado 47666" d="M405.252,184.382a5.056,5.056,0,0,1-.932.106c-.766,0-1.087-.55-1.087-1.348V182.8c0-.8.321-1.348,1.087-1.348a5.158,5.158,0,0,1,.932.1c.066.017.084.039.084.106v2.619C405.336,184.343,405.318,184.366,405.252,184.382Zm-.16-2.646a5.018,5.018,0,0,0-.772-.073c-.621,0-.843.416-.843,1.133v.344c0,.715.222,1.131.843,1.131a5.169,5.169,0,0,0,.772-.072Z" transform="translate(-380.443 -174.288)" fill="#fff"/>
    <path id="Trazado_47667" data-name="Trazado 47667" d="M407.186,184.527a3.9,3.9,0,0,1-.421.017c-.488,0-.76-.161-.76-.711v-2.923a.105.105,0,0,1,.106-.106h.045a.1.1,0,0,1,.1.106v.621h.932c.061,0,.106.034.106.089v.049c0,.056-.045.089-.106.089h-.932v2.075c0,.428.139.494.511.494h.421c.084,0,.117.022.117.072v.039C407.3,184.484,407.286,184.516,407.186,184.527Z" transform="translate(-380.197 -174.345)" fill="#fff"/>
    <path id="Trazado_47668" data-name="Trazado 47668" d="M408.022,181.019h-.033a.106.106,0,0,1-.106-.106V180.5a.109.109,0,0,1,.106-.106h.033a.109.109,0,0,1,.106.106v.411A.106.106,0,0,1,408.022,181.019Zm0,3.562h-.033a.109.109,0,0,1-.106-.106v-2.8a.109.109,0,0,1,.106-.106h.033a.109.109,0,0,1,.106.106v2.8A.109.109,0,0,1,408.022,184.581Z" transform="translate(-380.029 -174.381)" fill="#fff"/>
    <path id="Trazado_47669" data-name="Trazado 47669" d="M410.693,184.437a6.506,6.506,0,0,1-.671.05c-.794,0-1.1-.616-1.1-1.343v-.372c0-.737.3-1.325,1.1-1.325a6.219,6.219,0,0,1,.671.05c.084.011.106.038.106.1v.039c0,.061-.05.088-.117.077a5.424,5.424,0,0,0-.66-.05c-.633,0-.855.439-.855,1.11v.372c0,.671.222,1.126.855,1.126a5.216,5.216,0,0,0,.66-.05c.066-.011.117.016.117.077v.039C410.8,184.4,410.776,184.427,410.693,184.437Z" transform="translate(-379.937 -174.288)" fill="#fff"/>
    <path id="Trazado_47670" data-name="Trazado 47670" d="M412.178,184.488a4.979,4.979,0,0,1-.8-.078c-.077-.016-.122-.027-.122-.088v-.061c0-.066.056-.089.122-.078a5.593,5.593,0,0,0,.816.089c.4,0,.7-.106.7-.555,0-.227-.122-.35-.588-.6l-.355-.194c-.416-.228-.671-.411-.671-.788,0-.516.411-.682.848-.682a5.621,5.621,0,0,1,.794.05c.077.011.117.022.117.094v.045c0,.088-.034.1-.117.088a6.74,6.74,0,0,0-.771-.061c-.355,0-.627.073-.627.466,0,.244.2.389.538.577l.371.206c.461.255.7.438.7.8C413.137,184.31,412.694,184.488,412.178,184.488Z" transform="translate(-379.73 -174.288)" fill="#fff"/>
    <path id="Trazado_47671" data-name="Trazado 47671" d="M415.2,184.545h-.056a.1.1,0,0,1-.094-.106v-3.912a.1.1,0,0,1,.094-.106h.056a.1.1,0,0,1,.095.106v3.912A.1.1,0,0,1,415.2,184.545Z" transform="translate(-379.392 -174.379)" fill="#fff"/>
    <path id="Trazado_47672" data-name="Trazado 47672" d="M418.207,184.488h-.056a.1.1,0,0,1-.094-.106v-1.914c0-.7-.322-.787-.694-.787h-.238c-.372,0-.694.088-.694.787v1.914a.1.1,0,0,1-.095.106h-.056a.1.1,0,0,1-.094-.106v-1.914c0-.932.554-1.02.938-1.02h.238c.382,0,.938.088.938,1.02v1.914A.1.1,0,0,1,418.207,184.488Z" transform="translate(-379.29 -174.288)" fill="#fff"/>
    <path id="Trazado_47673" data-name="Trazado 47673" d="M419.769,184.488a4.955,4.955,0,0,1-.8-.078c-.078-.016-.122-.027-.122-.088v-.061c0-.066.056-.089.122-.078a5.577,5.577,0,0,0,.816.089c.4,0,.7-.106.7-.555,0-.227-.122-.35-.588-.6l-.355-.194c-.416-.228-.672-.411-.672-.788,0-.516.411-.682.849-.682a5.6,5.6,0,0,1,.793.05c.078.011.117.022.117.094v.045c0,.088-.033.1-.117.088a6.717,6.717,0,0,0-.771-.061c-.355,0-.627.073-.627.466,0,.244.2.389.539.577l.371.206c.461.255.7.438.7.8C420.728,184.31,420.284,184.488,419.769,184.488Z" transform="translate(-379.054 -174.288)" fill="#fff"/>
    <path id="Trazado_47674" data-name="Trazado 47674" d="M422.495,184.527a3.937,3.937,0,0,1-.423.017c-.488,0-.76-.161-.76-.711v-2.923a.105.105,0,0,1,.106-.106h.045a.1.1,0,0,1,.1.106v.621h.932a.092.092,0,0,1,.1.089v.049a.092.092,0,0,1-.1.089h-.932v2.075c0,.428.138.494.51.494h.423c.083,0,.117.022.117.072v.039C422.611,184.484,422.594,184.516,422.495,184.527Z" transform="translate(-378.834 -174.345)" fill="#fff"/>
    <path id="Trazado_47675" data-name="Trazado 47675" d="M423.331,181.019H423.3a.106.106,0,0,1-.106-.106V180.5a.109.109,0,0,1,.106-.106h.034a.109.109,0,0,1,.106.106v.411A.106.106,0,0,1,423.331,181.019Zm0,3.562H423.3a.109.109,0,0,1-.106-.106v-2.8a.109.109,0,0,1,.106-.106h.034a.109.109,0,0,1,.106.106v2.8A.109.109,0,0,1,423.331,184.581Z" transform="translate(-378.667 -174.381)" fill="#fff"/>
    <path id="Trazado_47676" data-name="Trazado 47676" d="M425.49,184.527a3.9,3.9,0,0,1-.421.017c-.488,0-.76-.161-.76-.711v-2.923a.105.105,0,0,1,.106-.106h.045a.1.1,0,0,1,.1.106v.621h.932c.061,0,.106.034.106.089v.049c0,.056-.045.089-.106.089h-.932v2.075c0,.428.139.494.511.494h.421c.084,0,.117.022.117.072v.039C425.606,184.484,425.59,184.516,425.49,184.527Z" transform="translate(-378.568 -174.345)" fill="#fff"/>
    <path id="Trazado_47677" data-name="Trazado 47677" d="M427.221,184.485h-.1a.984.984,0,0,1-1.005-1.116v-1.791a.1.1,0,0,1,.095-.106h.056a.1.1,0,0,1,.095.106v1.791c0,.711.382.889.76.889h.1c.378,0,.76-.178.76-.889v-1.791a.1.1,0,0,1,.095-.106h.056a.1.1,0,0,1,.095.106v1.791A.984.984,0,0,1,427.221,184.485Z" transform="translate(-378.407 -174.286)" fill="#fff"/>
    <path id="Trazado_47678" data-name="Trazado 47678" d="M430.05,184.527a3.937,3.937,0,0,1-.423.017c-.488,0-.76-.161-.76-.711v-2.923a.105.105,0,0,1,.106-.106h.045a.1.1,0,0,1,.1.106v.621h.932a.092.092,0,0,1,.1.089v.049a.092.092,0,0,1-.1.089h-.932v2.075c0,.428.138.494.51.494h.423c.083,0,.117.022.117.072v.039C430.166,184.484,430.149,184.516,430.05,184.527Z" transform="translate(-378.162 -174.345)" fill="#fff"/>
    <path id="Trazado_47679" data-name="Trazado 47679" d="M432.612,183.023h-1.875v.117c0,.932.45,1.131,1,1.131a4.392,4.392,0,0,0,.821-.095c.056-.011.117,0,.117.073v.038c0,.061-.022.089-.106.106a4.389,4.389,0,0,1-.832.095c-.688,0-1.248-.3-1.248-1.348v-.367c0-.766.388-1.325,1.121-1.325.766,0,1.1.533,1.1,1.32v.15A.106.106,0,0,1,432.612,183.023Zm-.138-.256c0-.7-.234-1.1-.86-1.1s-.877.45-.877,1.11v.028h1.737Z" transform="translate(-378.017 -174.288)" fill="#fff"/>
  </g>
  <path id="Trazado_47680" data-name="Trazado 47680" d="M395.251,161c-1.53.862-2.058-.611-2.873-1.662-.152-.161-2.029-1.711-.937-1.507,1.161.342,5.764.822,3.809,3.169Zm-9.169,5.755c-2.1,1.094-3.239-.957-2.534-2.8.662-1.372,1.237-2.024,1.1-3.5-.475-2.178-.745-4.518-1.38-6.644-.182-.386-.453-.437-.846-.321a16.888,16.888,0,0,0-5.593,3.77c-.867.793-1.65,1.578-2.791.787-2.17-2.317,2.468-3.1,3.65-3.527.993-.448,4.287-1.3,3.994-2.878-.718-1.468-2.421-2.818-3.654-3.837-1.437-1.045-5.5-2.545-3-4.829a1.861,1.861,0,0,1,2.716.771c1.081,2.55,2.271,4.928,4.748,6.4a.81.81,0,0,0,1.024-.248,51.183,51.183,0,0,1,3.963-6.773c1.33-1.561,1.964-2.737,1.6-4.835a1.293,1.293,0,1,1,2.256.755c-1.4,1.8-2.521,3.821-3.739,5.751a31.136,31.136,0,0,0-1.68,4.1c-.36,1.783,2.378.3,3.021.009,2.717-1.08,5.645-1.224,8.3-2.454,3.883-1.116,3.644,5.222-.135,3.814a12.006,12.006,0,0,0-4.207-1.465,17.318,17.318,0,0,0-5.812,1.533c-2.809,1.435-2.382,1.573-.258,3.841.475.42,2.948,2.207,2.913,2.709-.18.2-1.816-.833-2.046-.965-3.125-1.913-2.631-1.32-2.344,2.259.016,1.868-.382,3.61.591,5.236.911,1.26,1.353,2.174.136,3.346Z" transform="translate(-332.151 -136.874)" fill="#fff" fill-rule="evenodd"/>
  <g id="Grupo_721" data-name="Grupo 721" transform="translate(0 27.287)">
    <path id="Trazado_47681" data-name="Trazado 47681" d="M337.89,186.206h-1.779a.617.617,0,0,1-.583-.647V162.783a.588.588,0,0,1,.583-.615h1.779a.588.588,0,0,1,.582.615v22.775A.615.615,0,0,1,337.89,186.206Z" transform="translate(-335.528 -161.91)" fill="#fff"/>
    <path id="Trazado_47682" data-name="Trazado 47682" d="M359.21,186.227H357.4a.592.592,0,0,1-.55-.647v-14.3c0-5.629-1.941-6.762-5.952-6.762-1.392,0-3.979.13-4.788.195V185.58a.615.615,0,0,1-.583.647h-1.779a.6.6,0,0,1-.582-.647V163.451c0-.809.258-1.036.9-1.133a62.292,62.292,0,0,1,6.891-.388c5.823,0,8.832,2.2,8.832,9.349v14.3A.615.615,0,0,1,359.21,186.227Z" transform="translate(-334.849 -161.931)" fill="#fff"/>
    <path id="Trazado_47683" data-name="Trazado 47683" d="M369.169,186.451a37.618,37.618,0,0,1-5.273-.291c-.745-.1-1.068-.389-1.068-1.2V163.416a1.05,1.05,0,0,1,1.036-1.2,47.657,47.657,0,0,1,5.143-.259c5.144,0,9.48,1.359,9.48,6.244v.517a5.181,5.181,0,0,1-3.462,5.079,5.313,5.313,0,0,1,3.592,5.241v.55C378.616,185.027,374.216,186.451,369.169,186.451Zm6.373-18.246c0-3.106-2.587-3.753-6.535-3.753-1.1,0-2.3.064-3.2.1v8.023h4.982c3.753,0,4.756-1.811,4.756-3.85Zm.13,10.838c0-2.136-1.067-4.109-4.885-4.109H365.8v8.9c1.068.032,2.232.128,3.365.128,4.012,0,6.5-.873,6.5-4.367Z" transform="translate(-333.098 -161.928)" fill="#fff"/>
  </g>
  <path id="Trazado_47684" data-name="Trazado 47684" d="M338.48,155.388a1.472,1.472,0,1,1-1.471-1.472A1.472,1.472,0,0,1,338.48,155.388Z" transform="translate(-335.527 -135.357)" fill="#fff"/>
  <circle id="Elipse_16" data-name="Elipse 16" cx="1.472" cy="1.472" r="1.472" transform="translate(8.294 18.559)" fill="#fff"/>
  <circle id="Elipse_17" data-name="Elipse 17" cx="1.472" cy="1.472" r="1.472" transform="translate(16.58 18.559)" fill="#fff"/>
</svg>
